<?xml version="1.0" standalone="no"?>
<!DOCTYPE svg PUBLIC "-//W3C//DTD SVG 1.1//EN" "http://www.w3.org/Graphics/SVG/1.1/DTD/svg11.dtd" >
<svg>
<metadata>
Created by FontForge 20090622 at Thu Apr 11 09:30:52 2019
 By deploy user
Copyright 2011 by Timo Gaessner, 123buero. All rights reserved.
</metadata>
<defs>
<font id="MaisonNeue-Mono" horiz-adv-x="650" >
  <font-face 
    font-family="Maison Neue"
    font-weight="400"
    font-stretch="normal"
    units-per-em="1000"
    panose-1="2 0 0 0 0 0 0 0 0 0"
    ascent="775"
    descent="-225"
    x-height="529"
    cap-height="700"
    bbox="-26 -300 708 976"
    underline-thickness="50"
    underline-position="-50"
    unicode-range="U+000D-U+F8FF"
  />
<missing-glyph 
d="M32 0v423q0 117 86 204.5t206 87.5q121 0 207.5 -87.5t86.5 -204.5v-423h-28l-65 65l-68 -65l-63 65l-71 -65l-69 65l-63 -65l-67 65l-66 -65h-26zM392 305l63 63l64 -63l14 14l-64 63l64 64l-14 14l-64 -64l-63 64l-14 -14l63 -64l-63 -63zM132 305l63 63l64 -63l14 14
l-64 63l64 64l-14 14l-64 -64l-63 64l-14 -14l63 -64l-63 -63z" />
    <glyph glyph-name=".notdef" 
d="M32 0v423q0 117 86 204.5t206 87.5q121 0 207.5 -87.5t86.5 -204.5v-423h-28l-65 65l-68 -65l-63 65l-71 -65l-69 65l-63 -65l-67 65l-66 -65h-26zM392 305l63 63l64 -63l14 14l-64 63l64 64l-14 14l-64 -64l-63 64l-14 -14l63 -64l-63 -63zM132 305l63 63l64 -63l14 14
l-64 63l64 64l-14 14l-64 -64l-63 64l-14 -14l63 -64l-63 -63z" />
    <glyph glyph-name=".null" horiz-adv-x="600" 
 />
    <glyph glyph-name=".null" horiz-adv-x="600" 
 />
    <glyph glyph-name="nonmarkingreturn" horiz-adv-x="333" 
 />
    <glyph glyph-name="CR" unicode="&#xd;" horiz-adv-x="600" 
 />
    <glyph glyph-name="space" unicode=" " horiz-adv-x="600" 
 />
    <glyph glyph-name="exclam" unicode="!" 
d="M284 208v492h82v-492h-82zM266 0v115h117v-115h-117z" />
    <glyph glyph-name="quotedbl" unicode="&#x22;" 
d="M232 476v224h63v-224h-63zM355 476v224h63v-224h-63z" />
    <glyph glyph-name="numbersign" unicode="#" 
d="M177 155l9 144h-129v60h133l10 136h-111v59h114l11 146h64l-10 -146h133l10 146h65l-10 -146h126v-59h-130l-9 -136h107v-60h-111l-9 -144h-65l9 144h-133l-9 -144h-65zM255 359h133l9 136h-133z" />
    <glyph glyph-name="dollar" unicode="$" 
d="M52 241l86 17q15 -91 51 -137t115 -55q0 44 0.5 134t0.5 134q-113 30 -167 77t-54 118q0 75 59.5 128.5t162.5 57.5v60h44v-62q89 -8 146.5 -56t71.5 -135l-82 -18q-13 58 -43.5 91t-93.5 39v-230q142 -41 195.5 -88t53.5 -128q0 -89 -65 -145.5t-185 -57.5v-83h-44v85
q-223 21 -252 254zM349 322q0 -43 -0.5 -129.5t-0.5 -129.5q85 0 126 35t41 91q0 47 -33.5 75.5t-132.5 57.5zM168 529q0 -39 30.5 -65.5t106.5 -47.5v220q-68 -2 -102.5 -32t-34.5 -75z" />
    <glyph glyph-name="percent" unicode="%" 
d="M245 522q47 0 72 39t25 106q0 66 -25.5 99.5t-71.5 33.5q-45 0 -70.5 -33.5t-25.5 -99.5q0 -67 24.5 -106t71.5 -39zM245 459q-77 0 -121 55.5t-44 153.5q0 93 49.5 144.5t115.5 51.5q67 0 116.5 -51.5t49.5 -144.5q0 -95 -45 -152t-121 -57zM403 -97q47 0 72 39t25 106
q0 66 -25.5 99.5t-71.5 33.5q-45 0 -70.5 -33.5t-25.5 -99.5q0 -67 24.5 -106t71.5 -39zM403 -160q-77 0 -121 55.5t-44 153.5q0 93 49.5 144.5t115.5 51.5q67 0 116.5 -51.5t49.5 -144.5q0 -95 -45 -152t-121 -57zM156 212l-34 60l372 216l34 -60z" />
    <glyph glyph-name="ampersand" unicode="&#x26;" 
d="M567 70l-55 48q-18 -55 -75 -94t-143 -39q-97 0 -163 51t-66 151q0 135 126 221q-56 67 -56 140q0 70 48 118.5t125 48.5q69 0 115.5 -40t59.5 -115l-74 -16q-19 97 -100 97q-43 0 -67.5 -26t-24.5 -66q0 -53 50 -101l192 -186v130h74v-190l83 -72zM448 170l-202 190
q-101 -61 -101 -168q0 -64 42.5 -96.5t107.5 -32.5q61 0 102 29.5t51 77.5z" />
    <glyph glyph-name="quotesingle" unicode="'" 
d="M293 476v224h63v-224h-63z" />
    <glyph glyph-name="parenleft" unicode="(" 
d="M451 -154l-53 -43q-17 16 -44 53.5t-65 102.5t-64 156t-26 183q0 81 18.5 159t42.5 129.5t56.5 99.5t49.5 66.5l32 33.5l53 -43q-81 -91 -125.5 -191t-44.5 -253q0 -238 170 -453z" />
    <glyph glyph-name="parenright" unicode=")" 
d="M252 -197l-53 43q170 215 170 453q0 153 -44.5 253t-125.5 191l53 43l32 -33.5t49.5 -66.5t56.5 -99.5t42.5 -129.5t18.5 -159q0 -92 -26 -183t-64 -156t-65 -102.5t-44 -53.5z" />
    <glyph glyph-name="asterisk" unicode="*" 
d="M170 384l92 111l-122 73l35 56l117 -68v144h66v-144l118 68l34 -57l-122 -72l93 -111l-51 -45l-105 130l-104 -130z" />
    <glyph glyph-name="plus" unicode="+" 
d="M289 120v227h-199v66h199v202h72v-202h199v-66h-199v-227h-72z" />
    <glyph glyph-name="comma" unicode="," 
d="M266 -106v45q48 9 48 61h-48v118h118v-103q0 -113 -118 -121z" />
    <glyph glyph-name="hyphen" unicode="-" 
d="M160 304v74h329v-74h-329z" />
    <glyph glyph-name="period" unicode="." 
d="M266 0v118h118v-118h-118z" />
    <glyph glyph-name="slash" unicode="/" 
d="M116 -15l360 760l67 -30l-360 -758z" />
    <glyph glyph-name="zero" unicode="0" 
d="M325 -15q-113 0 -188 91.5t-75 279.5q0 171 77.5 265t185.5 94t185.5 -96t77.5 -267q0 -187 -76 -277t-187 -90zM325 63q78 0 126.5 72.5t48.5 216.5q0 45 -6 84l-324 -236q43 -137 155 -137zM150 356q0 -41 5 -83l323 236q-44 127 -153 127q-79 0 -127 -70t-48 -210z
" />
    <glyph glyph-name="one" unicode="1" 
d="M85 0v75h206v530l-192 -121v90l202 126h67v-625h197v-75h-480z" />
    <glyph glyph-name="two" unicode="2" 
d="M99 0v63q0 97 36 150q33 52 156 117l56.5 31t43 26t38 28t23 27t17.5 34.5t4 39.5q0 51 -35.5 87.5t-106.5 36.5q-69 0 -110.5 -42.5t-45.5 -119.5l-80 8q4 108 69.5 168.5t168.5 60.5q104 0 162 -58.5t58 -144.5q0 -46 -13 -80.5t-47 -64t-52.5 -41t-68.5 -38.5l-14 -8
l-32.5 -17.5l-29.5 -16l-23.5 -13.5t-22 -14l-16.5 -13t-16 -15t-11 -15q-20 -31 -20 -93h368v-83h-456z" />
    <glyph glyph-name="three" unicode="3" 
d="M81 230l81 16q12 -96 52 -141t119 -45q76 0 115.5 39.5t39.5 97.5q0 142 -153 142h-50v72h21q22 0 42 3t50 12.5t48 34.5t18 62q0 55 -35 86t-95 31t-95.5 -35t-43.5 -98l-78 14q9 88 68.5 141t149.5 53q91 0 150 -49.5t59 -137.5q0 -59 -33.5 -96.5t-75.5 -48.5v-2
q56 -13 94.5 -61t38.5 -125q0 -91 -65 -150.5t-169 -59.5q-105 0 -172 60t-81 185z" />
    <glyph glyph-name="four" unicode="4" 
d="M50 162v75l317 463h126v-462h87v-76h-87v-162h-80v162h-363zM139 238h274v399h-2z" />
    <glyph glyph-name="five" unicode="5" 
d="M78 179l79 28q40 -146 171 -146q75 0 119 46.5t44 127.5q0 77 -43.5 121t-115.5 44q-102 0 -156 -84l-74 32l63 352h345v-76h-282l-40 -221l1 -1q21 28 62.5 47t97.5 19q93 0 158 -64.5t65 -169.5q0 -113 -69 -181t-175 -68q-97 0 -161.5 53.5t-88.5 140.5z" />
    <glyph glyph-name="six" unicode="6" 
d="M343 61q77 0 119.5 45.5t42.5 122.5q0 75 -44.5 120.5t-120.5 45.5q-71 0 -119 -47t-48 -109q0 -77 48 -127.5t122 -50.5zM551 537l-76 -20q-32 123 -141 123q-75 0 -129 -74.5t-55 -215.5l1 -1q6 14 19 31t36.5 37.5t61.5 34t82 13.5q98 0 166.5 -64t68.5 -171
q0 -114 -68 -179.5t-174 -65.5q-54 0 -102.5 20t-89 60t-64 110.5t-23.5 163.5q0 166 77 271t195 105q92 0 146 -51t69 -127z" />
    <glyph glyph-name="seven" unicode="7" 
d="M141 0l338 621v2h-358v77h441v-86l-331 -614h-90z" />
    <glyph glyph-name="eight" unicode="8" 
d="M326 642q-64 0 -97 -33.5t-33 -81.5q0 -50 36 -83.5t94 -33.5t93.5 33.5t35.5 83.5q0 49 -32.5 82t-96.5 33zM326 -15q-111 0 -179.5 56t-68.5 157q0 66 39 115t92 66v2q-40 17 -66.5 56.5t-26.5 97.5q0 72 57.5 126t152.5 54t152.5 -54t57.5 -126q0 -58 -27 -97.5
t-66 -56.5v-2q54 -19 91.5 -67t37.5 -114q0 -101 -67.5 -157t-178.5 -56zM326 63q75 0 118.5 38.5t43.5 99.5q0 63 -45 102t-117 39t-117.5 -39t-45.5 -102q0 -61 43.5 -99.5t119.5 -38.5z" />
    <glyph glyph-name="nine" unicode="9" 
d="M104 161l77 24q31 -125 146 -125q166 0 167 287h-2q-4 -12 -15 -27.5t-32 -34.5t-56.5 -32t-79.5 -13q-100 0 -166.5 65.5t-66.5 172.5q0 106 68 171.5t164 65.5q122 0 193.5 -91.5t71.5 -274.5q0 -190 -68 -277t-179 -87q-87 0 -145 48t-77 128zM314 314q70 0 113.5 45
t43.5 115q0 71 -45.5 118.5t-117.5 47.5q-66 0 -109 -44t-43 -118q0 -75 43 -119.5t115 -44.5z" />
    <glyph glyph-name="colon" unicode=":" 
d="M266 0v118h118v-118h-118zM266 412v118h118v-118h-118z" />
    <glyph glyph-name="semicolon" unicode=";" 
d="M266 -106v45q48 9 48 61h-48v118h118v-103q0 -113 -118 -121zM266 412v118h118v-118h-118z" />
    <glyph glyph-name="less" unicode="&#x3c;" 
d="M111 317l1 70l390 233l37 -60l-349 -208l349 -211l-38 -59z" />
    <glyph glyph-name="equal" unicode="=" 
d="M93 249v70h463v-70h-463zM93 417v70h463v-70h-463z" />
    <glyph glyph-name="greater" unicode="&#x3e;" 
d="M488 387l1 -70l-390 -235l-38 59l349 211l-349 208l37 60z" />
    <glyph glyph-name="question" unicode="?" 
d="M258 190v55q0 36 17.5 62t65.5 62q35 25 47.5 35t34 31.5t29 42.5t7.5 48q0 44 -31 78.5t-96 34.5q-134 0 -144 -152l-81 8q2 98 61 159t166 61q91 0 149.5 -52.5t58.5 -133.5q0 -46 -16 -80.5t-34 -51.5t-59 -48l-29.5 -23t-25.5 -20t-17 -15.5t-14.5 -16.5t-6.5 -16
t-3 -21v-47h-79zM242 0v115h117v-115h-117z" />
    <glyph glyph-name="at" unicode="@" 
d="M390 274v94h-2q-7 -16 -61 -33q-49 -15 -65.5 -30t-16.5 -44q0 -32 21.5 -46.5t52.5 -14.5q28 0 49.5 19t21.5 55zM467 78l27 -45q-25 -19 -70 -33.5t-97 -14.5q-127 0 -195 100t-68 261t72 264.5t197 103.5q121 0 187 -100.5t66 -257.5q0 -121 -25 -166.5t-74 -45.5
q-57 0 -79 45h-2q-12 -19 -38 -32t-59 -13q-55 0 -90 31.5t-35 84.5q0 48 27.5 76.5t95.5 46.5q49 13 66 24t17 33q0 25 -16 41.5t-48 16.5q-58 0 -72 -72l-55 13q5 52 40 83t85 31q56 0 90 -31.5t34 -92.5v-190q0 -22 9.5 -32t31.5 -10q23 0 33 34t10 123
q0 138 -49.5 223.5t-149.5 85.5q-102 0 -158 -88.5t-56 -228.5q0 -139 52.5 -224t155.5 -85q79 0 140 41z" />
    <glyph glyph-name="A" unicode="A" 
d="M513 0l-47 137h-287l-43 -137h-87l232 700h87l232 -700h-87zM442 209l-117 380h-2l-121 -380h240z" />
    <glyph glyph-name="B" unicode="B" 
d="M97 0v700h242q93 0 150 -51t57 -130q0 -101 -90 -140v-3q47 -15 81.5 -59t34.5 -110q0 -98 -62 -152.5t-188 -54.5h-225zM183 404h141q137 0 137 110q0 53 -36.5 81.5t-101.5 28.5h-140v-220zM183 76h128q88 0 132 31t44 100q0 67 -42 95t-132 28h-130v-254z" />
    <glyph glyph-name="C" unicode="C" 
d="M346 636q-81 0 -130 -70.5t-49 -209.5q0 -145 48 -219t131 -74q73 0 112 54.5t46 142.5l87 -11q-8 -121 -74 -192.5t-171 -71.5q-116 0 -192.5 91t-76.5 280q0 172 77.5 265.5t191.5 93.5q98 0 164 -68t79 -176l-84 -15q-12 79 -50.5 129.5t-108.5 50.5z" />
    <glyph glyph-name="D" unicode="D" 
d="M182 76h93q228 0 228 275q0 132 -59.5 202.5t-162.5 70.5h-99v-548zM96 0v700h192q60 0 113.5 -21t97 -62t69 -109.5t25.5 -156.5q0 -96 -26 -167t-72 -109.5t-98.5 -56.5t-114.5 -18h-186z" />
    <glyph glyph-name="E" unicode="E" 
d="M132 0v700h414v-76h-328v-227h300v-74h-300v-247h328v-76h-414z" />
    <glyph glyph-name="F" unicode="F" 
d="M140 0v700h406v-76h-319v-253h291v-73h-291v-298h-87z" />
    <glyph glyph-name="G" unicode="G" 
d="M346 -15q-118 0 -195.5 92t-77.5 280q0 170 79.5 264t193.5 94q92 0 157 -64t81 -167l-83 -15q-12 75 -50.5 121t-104.5 46q-81 0 -132 -70.5t-51 -208.5q0 -144 50.5 -219t132.5 -75q74 0 118.5 55t42.5 149h-176v76h259v-68q0 -135 -68.5 -212.5t-175.5 -77.5z" />
    <glyph glyph-name="H" unicode="H" 
d="M93 0v700h86v-301h293v301h85v-700h-85v325h-293v-325h-86z" />
    <glyph glyph-name="I" unicode="I" 
d="M115 625v75h420v-75h-168v-550h168v-75h-420v75h167v550h-167z" />
    <glyph glyph-name="J" unicode="J" 
d="M178 625v75h350v-472q0 -122 -53.5 -182.5t-151.5 -60.5q-92 0 -148 57.5t-71 151.5l81 21q16 -75 44.5 -113.5t89.5 -38.5q66 0 95.5 40t29.5 130v392h-266z" />
    <glyph glyph-name="K" unicode="K" 
d="M112 0v700h85v-342h2l284 342h104l-256 -306l284 -394h-102l-238 331h-2l-76 -89v-242h-85z" />
    <glyph glyph-name="L" unicode="L" 
d="M166 0v700h86v-624h331v-76h-417z" />
    <glyph glyph-name="M" unicode="M" 
d="M88 0v700h112l124 -396h2l124 396h112v-700h-76v588h-2l-146 -452h-26l-146 452h-2v-588h-76z" />
    <glyph glyph-name="N" unicode="N" 
d="M101 0v700h87l279 -558h2v558h80v-700h-85l-281 558h-2v-558h-80z" />
    <glyph glyph-name="O" unicode="O" 
d="M325 63q78 0 126.5 72.5t48.5 216.5q0 140 -48 212t-127 72t-127 -70t-48 -210q0 -144 48 -218.5t127 -74.5zM325 -15q-53 0 -99 21t-84 63.5t-60 116t-22 170.5q0 171 78.5 265t186.5 94t186.5 -96t78.5 -267q0 -97 -22.5 -170t-60.5 -114.5t-84 -62t-98 -20.5z" />
    <glyph glyph-name="P" unicode="P" 
d="M116 0v700h241q106 0 171 -56.5t65 -159.5q0 -102 -63.5 -158t-170.5 -56h-158v-270h-85zM201 346h153q66 0 109.5 35t43.5 103q0 71 -44 105.5t-111 34.5h-151v-278z" />
    <glyph glyph-name="Q" unicode="Q" 
d="M325 -15q-53 0 -99 21t-84 63.5t-60 116t-22 170.5q0 171 78.5 265t186.5 94t186.5 -96t78.5 -267q0 -149 -58 -248l74 -74l-48 -46l-68 67q-67 -66 -165 -66zM325 63q64 0 107 46l-167 167l48 46l155 -155q32 72 32 185q0 140 -48 212t-127 72t-127 -70t-48 -210
q0 -144 48 -218.5t127 -74.5z" />
    <glyph glyph-name="R" unicode="R" 
d="M116 0v700h222q110 0 173 -53t63 -155q0 -84 -47.5 -135t-126.5 -65l156 -292h-93l-152 286h-110v-286h-85zM201 360h132q70 0 113 31.5t43 100.5q0 132 -158 132h-130v-264z" />
    <glyph glyph-name="S" unicode="S" 
d="M70 241l88 17q14 -102 54.5 -148.5t132.5 -46.5q71 0 107 35t36 86q0 55 -32 85.5t-144 71.5q-113 41 -161.5 82.5t-48.5 112.5q0 77 58.5 128t153.5 51q90 0 155.5 -49.5t77.5 -143.5l-83 -18q-24 132 -150 132q-61 0 -93.5 -28.5t-32.5 -71.5q0 -38 30 -64t132 -63
q130 -48 176.5 -92t46.5 -129q0 -86 -62 -144.5t-169 -58.5q-241 0 -272 256z" />
    <glyph glyph-name="T" unicode="T" 
d="M283 0v624h-236v76h555v-76h-235v-624h-84z" />
    <glyph glyph-name="U" unicode="U" 
d="M74 228v472h85v-466q0 -171 165 -171q82 0 124.5 43.5t42.5 125.5v468h84v-472q0 -119 -66 -181t-185 -62q-118 0 -184 62t-66 181z" />
    <glyph glyph-name="V" unicode="V" 
d="M276 0l-227 700h91l186 -599h2l182 599h90l-222 -700h-102z" />
    <glyph glyph-name="W" unicode="W" 
d="M136 0l-79 700h85l55 -578h2l100 408h53l99 -408h2l55 578h85l-79 -700h-97l-91 370h-2l-90 -370h-98z" />
    <glyph glyph-name="X" unicode="X" 
d="M58 0l216 365l-198 335h95l156 -276h2l150 276h93l-194 -342l213 -358h-94l-172 299h-2l-171 -299h-94z" />
    <glyph glyph-name="Y" unicode="Y" 
d="M283 0v295l-231 405h94l178 -325h2l178 325h94l-231 -405v-295h-84z" />
    <glyph glyph-name="Z" unicode="Z" 
d="M77 0v68l392 554v2h-374v76h478v-68l-393 -553v-2h385v-77h-488z" />
    <glyph glyph-name="bracketleft" unicode="[" 
d="M199 -182v912h252v-69h-178v-774h178v-69h-252z" />
    <glyph glyph-name="backslash" unicode="\" 
d="M466 -44l-360 758l67 31l360 -760z" />
    <glyph glyph-name="bracketright" unicode="]" 
d="M451 730v-912h-252v69h178v774h-178v69h252z" />
    <glyph glyph-name="asciicircum" unicode="^" 
d="M127 325l173 375h49l173 -375h-75l-122 279l-123 -279h-75z" />
    <glyph glyph-name="underscore" unicode="_" 
d="M74 -138v68h502v-68h-502z" />
    <glyph glyph-name="grave" unicode="`" 
d="M343 595l-108 121h101l78 -121h-71z" />
    <glyph glyph-name="a" unicode="a" 
d="M460 0v58h-2q-15 -26 -57 -49.5t-105 -23.5q-88 0 -134.5 43t-46.5 108q0 66 41.5 103.5t138.5 62.5q83 21 117.5 39t34.5 54q0 33 -30 55t-81 22q-106 0 -129 -105l-76 22q12 69 65.5 112.5t136.5 43.5q89 0 145 -45t56 -122v-378h-74zM314 239q-68 -19 -92.5 -41
t-24.5 -57q0 -83 105 -83q72 0 111 32.5t39 79.5v132h-2q-14 -29 -136 -63z" />
    <glyph glyph-name="b" unicode="b" 
d="M206 340v-164q0 -47 39 -82t97 -35q79 0 120 54t41 152t-41 152t-120 54q-62 0 -99 -40.5t-37 -90.5zM124 0v730h82v-251h2q56 66 147 66q101 0 166.5 -77t65.5 -203q0 -127 -63.5 -203.5t-168.5 -76.5q-53 0 -93.5 20.5t-61.5 45.5h-2v-51h-74z" />
    <glyph glyph-name="c" unicode="c" 
d="M497 203l79 -16q-13 -92 -73 -147t-148 -55q-107 0 -175 75t-68 205q0 129 69.5 204.5t173.5 75.5q85 0 144.5 -54t72.5 -140l-77 -16q-12 59 -46 97.5t-94 38.5q-72 0 -116 -54.5t-44 -151.5q0 -96 43 -151t118 -55q59 0 96 42.5t45 101.5z" />
    <glyph glyph-name="d" unicode="d" 
d="M463 176v164q0 50 -37 90.5t-99 40.5q-79 0 -120 -54t-41 -152t41 -152t120 -54q58 0 97 35t39 82zM471 0v51h-2q-21 -25 -61.5 -45.5t-93.5 -20.5q-105 0 -168.5 76.5t-63.5 203.5t66.5 203.5t165.5 76.5q91 0 147 -66h2v251h82v-730h-74z" />
    <glyph glyph-name="e" unicode="e" 
d="M486 164l67 -44q-30 -58 -85.5 -96.5t-136.5 -38.5q-108 0 -178 76.5t-70 203.5t68.5 203.5t175.5 76.5t173.5 -75t66.5 -205v-24h-400q1 -76 42.5 -129t119.5 -53q36 0 63.5 9.5t45 27t26.5 31t19 31.5zM169 306h315q-2 67 -40 116t-117 49q-77 0 -117 -52.5t-41 -112.5
z" />
    <glyph glyph-name="f" unicode="f" horiz-adv-x="651" 
d="M281 0v457h-167v73h167v81q0 67 31 93t87 26h108v-73h-93q-31 0 -41.5 -12t-10.5 -50v-65h193v-73h-192v-457h-82z" />
    <glyph glyph-name="g" unicode="g" 
d="M121 -96l71 37q18 -50 48.5 -79t88.5 -29q64 0 99 37.5t35 104.5v71h-2q-52 -61 -147 -61q-105 0 -170 76t-65 204q0 127 67 203.5t167 76.5q96 0 149 -66h2v51h81v-538q0 -113 -57 -172.5t-157 -59.5q-81 0 -134.5 39.5t-75.5 104.5zM463 174v168q0 49 -37.5 89
t-99.5 40q-78 0 -120.5 -54.5t-42.5 -151.5q0 -98 42 -152t121 -54q59 0 98 34.5t39 80.5z" />
    <glyph glyph-name="h" unicode="h" 
d="M120 0v730h82v-253h2q22 30 64.5 49t90.5 19q85 0 137.5 -51.5t52.5 -147.5v-346h-82v324q0 146 -123 146q-65 0 -103.5 -38t-38.5 -99v-333h-82z" />
    <glyph glyph-name="i" unicode="i" 
d="M303 637v93h94v-93h-94zM130 460v70h260v-460h175v-70h-440v70h184v390h-179z" />
    <glyph glyph-name="j" unicode="j" 
d="M363 637v93h93v-93h-93zM177 457v73h285v-553q0 -85 -48.5 -128.5t-120.5 -43.5q-54 0 -94 23.5t-57 46.5l52 58q45 -54 99 -54q87 0 87 98v480h-203z" />
    <glyph glyph-name="k" unicode="k" 
d="M145 0v730h82v-443h2l223 243h109l-194 -210l218 -320h-99l-180 269h-2l-77 -85v-184h-82z" />
    <glyph glyph-name="l" unicode="l" 
d="M137 657v73h254v-657h181v-73h-440v73h177v584h-172z" />
    <glyph glyph-name="m" unicode="m" 
d="M102 0v530h74v-51h2q10 29 33 47.5t52 18.5q73 0 95 -78h2q11 32 38 55t67 23q66 0 93 -47t27 -137v-361h-76v336q0 71 -12 102.5t-47 31.5q-69 0 -69 -127v-343h-73v336q0 71 -12.5 102.5t-48.5 31.5q-69 0 -69 -127v-343h-76z" />
    <glyph glyph-name="n" unicode="n" 
d="M116 0v530h78v-51h2q22 29 63 47.5t86 18.5q86 0 138 -53t52 -144v-348h-82v322q0 148 -120 148q-62 0 -98.5 -35t-36.5 -97v-338h-82z" />
    <glyph glyph-name="o" unicode="o" 
d="M327 59q67 0 111 54.5t44 151.5q0 98 -43.5 152t-111.5 54q-70 0 -114.5 -53.5t-44.5 -152.5t44.5 -152.5t114.5 -53.5zM327 -15q-105 0 -174 74.5t-69 205.5q0 130 71 205t172 75q100 0 169.5 -75t69.5 -205q0 -131 -67.5 -205.5t-171.5 -74.5z" />
    <glyph glyph-name="p" unicode="p" 
d="M195 342v-168q0 -46 39 -80.5t97 -34.5q79 0 121.5 54t42.5 152q0 97 -43 151.5t-121 54.5q-61 0 -98.5 -40t-37.5 -89zM113 -225v755h78v-51h2q20 25 60 45.5t92 20.5q99 0 166 -76.5t67 -203.5q0 -128 -65 -204t-168 -76q-49 0 -90 21t-58 45h-2v-276h-82z" />
    <glyph glyph-name="q" unicode="q" 
d="M455 174v168q0 49 -37.5 89t-99.5 40q-78 0 -120.5 -54.5t-42.5 -151.5q0 -98 42 -152t121 -54q59 0 98 34.5t39 80.5zM455 -225v276h-2q-51 -66 -149 -66q-103 0 -168 76t-65 204q0 127 67 203.5t167 76.5q51 0 91 -20t61 -46h2v51h78v-755h-82z" />
    <glyph glyph-name="r" unicode="r" 
d="M184 0v530h78v-77h2q18 36 60 61t91 25q61 0 105 -32.5t65 -94.5l-80 -34q-23 78 -103 78q-59 0 -97.5 -44t-38.5 -117v-295h-82z" />
    <glyph glyph-name="s" unicode="s" 
d="M101 180l78 15q18 -139 169 -139q139 0 139 84q0 40 -29 60t-140 48q-121 31 -160.5 65t-37.5 91q2 56 54.5 98.5t144.5 42.5q93 0 148 -41t74 -107l-73 -24q-35 102 -148 102q-58 0 -89 -21.5t-31 -47.5q0 -24 7 -35t43 -26.5t117 -36.5q67 -17 107.5 -34t59 -39.5
t23.5 -41.5t6 -53q3 -65 -49.5 -110t-164.5 -45q-116 0 -177 54.5t-71 140.5z" />
    <glyph glyph-name="t" unicode="t" 
d="M264 154v303h-169v73h170v130h80v-130h191v-73h-190v-293q0 -47 13 -66t52 -19h90v-79h-94q-75 0 -109 38.5t-34 115.5z" />
    <glyph glyph-name="u" unicode="u" 
d="M120 185v345h82v-333q0 -74 28.5 -105t94.5 -31q60 0 92 37t32 103v329h82v-530h-81v51h-2q-5 -7 -15 -18t-46.5 -29.5t-79.5 -18.5q-88 0 -137.5 50t-49.5 150z" />
    <glyph glyph-name="v" unicode="v" 
d="M290 0l-214 530h86l162 -415h2l162 415h86l-214 -530h-70z" />
    <glyph glyph-name="w" unicode="w" 
d="M162 0l-87 529h81l55 -399h2l71 229h74l69 -229h2l65 399h80l-97 -529h-75l-81 262h-2l-81 -262h-76z" />
    <glyph glyph-name="x" unicode="x" 
d="M92 0l179 272l-168 258h92l129 -204h2l129 204h91l-167 -258l179 -272h-93l-140 218h-2l-138 -218h-93z" />
    <glyph glyph-name="y" unicode="y" 
d="M176 -225l100 265l-206 490h88l157 -385h2l141 385h86l-285 -755h-83z" />
    <glyph glyph-name="z" unicode="z" 
d="M105 0v64l333 389v2h-314v75h422v-62l-330 -390v-2h331v-76h-442z" />
    <glyph glyph-name="braceleft" unicode="{" 
d="M267 -41v223q0 32 -12 45t-41 13h-28v89h28q29 0 41 14.5t12 46.5v200q0 80 33.5 110t98.5 30h64v-70h-53q-37 0 -53 -19.5t-16 -67.5v-186q0 -29 -9.5 -50.5t-23 -31.5t-23 -14.5t-14.5 -5.5q70 -28 70 -100v-209q0 -49 16 -68t54 -19h52v-70h-64q-65 0 -98.5 29.5
t-33.5 110.5z" />
    <glyph glyph-name="bar" unicode="|" 
d="M285 -300v1075h80v-1075h-80z" />
    <glyph glyph-name="braceright" unicode="}" 
d="M382 182v-223q0 -81 -33.5 -110.5t-98.5 -29.5h-64v70h52q38 0 54 19t16 68v209q0 72 70 100q-5 1 -14.5 5.5t-23 14.5t-23 31.5t-9.5 50.5v186q0 48 -16 67.5t-53 19.5h-53v70h64q65 0 98.5 -30t33.5 -110v-200q0 -32 12 -46.5t41 -14.5h28v-89h-28q-29 0 -41 -13
t-12 -45z" />
    <glyph glyph-name="asciitilde" unicode="~" 
d="M219 391q-19 0 -33 -7t-24.5 -25t-13.5 -25.5t-11 -31.5l-55 17q14 61 48 102t89 41q42 0 80.5 -22t71.5 -43.5t60 -21.5q19 0 33 7t24.5 25t13.5 25.5t11 31.5l55 -17q-14 -61 -48 -102t-89 -41q-42 0 -81.5 22t-72 43.5t-58.5 21.5z" />
    <glyph glyph-name="nbspace" unicode="&#xa0;" horiz-adv-x="600" 
 />
    <glyph glyph-name="exclamdown" unicode="&#xa1;" 
d="M284 -170v492h82v-492h-82zM266 415v115h117v-115h-117z" />
    <glyph glyph-name="cent" unicode="&#xa2;" 
d="M477 203l79 -16q-12 -87 -67.5 -141.5t-136.5 -59.5v-96h-35v96q-100 6 -161.5 80t-61.5 199q0 123 63 197.5t160 81.5v87h35v-87q79 -5 133.5 -58t66.5 -135l-77 -16q-25 124 -123 135v-410q53 6 85 47t40 96zM175 265q0 -90 38 -144t104 -61v410q-65 -7 -103.5 -60.5
t-38.5 -144.5z" />
    <glyph glyph-name="sterling" unicode="&#xa3;" 
d="M80 0v76h37q33 0 47 13.5t14 47.5v181h-98v63h98v123q0 102 52 156.5t141 54.5q84 0 134 -49t62 -142l-76 -16q-12 68 -38.5 100t-80.5 32q-112 0 -112 -142v-117h201v-63h-201v-242h310v-76h-490z" />
    <glyph glyph-name="currency" unicode="&#xa4;" 
d="M70 114l65 65q-47 64 -47 150q0 83 47 149l-65 65l40 40l63 -64q67 57 151 57q88 0 153 -55l62 62l40 -40l-64 -64q46 -67 46 -150q0 -87 -47 -151l65 -64l-40 -40l-64 63q-64 -51 -151 -51q-89 0 -150 52l-64 -64zM325 161q60 0 103 40.5t43 126.5q0 88 -43 129.5
t-103 41.5q-61 0 -104 -41.5t-43 -129.5q0 -86 43 -126.5t104 -40.5z" />
    <glyph glyph-name="yen" unicode="&#xa5;" 
d="M97 139v67h186v89h-186v68h149l-192 337h91l179 -323h2l179 323h91l-192 -337h149v-68h-186v-89h186v-67h-187v-139h-81v139h-188z" />
    <glyph glyph-name="brokenbar" unicode="&#xa6;" 
d="M287 321v327h80v-327h-80zM287 -131v327h80v-327h-80z" />
    <glyph glyph-name="section" unicode="&#xa7;" 
d="M249 212l145 -56q16 -6 36 -18q60 41 60 94q0 56 -89 90l-144 56q-20 7 -37 17q-59 -40 -59 -93q0 -56 88 -90zM442 -11q0 37 -21 61t-67 43l-145 58q-70 27 -100 62t-31 84q-1 86 86 142q-38 41 -38 104q0 75 53.5 123.5t133.5 48.5q84 0 141 -47t68 -134l-80 -15
q-11 64 -42 92.5t-84 28.5q-55 0 -81.5 -28t-26.5 -67q0 -68 88 -104l146 -58q69 -27 99 -62t31 -84q1 -84 -87 -142q39 -41 39 -104q0 -75 -53.5 -123.5t-133.5 -48.5q-84 0 -141 47t-68 134l80 15q11 -64 42 -92.5t84 -28.5q55 0 81.5 28t26.5 67z" />
    <glyph glyph-name="dieresis" unicode="&#xa8;" 
d="M183 611v91h91v-91h-91zM375 611v91h91v-91h-91z" />
    <glyph glyph-name="copyright" unicode="&#xa9;" 
d="M329 46q-108 0 -182.5 89t-74.5 219t74.5 218.5t182.5 88.5q104 0 176 -89t72 -218q0 -130 -72 -219t-176 -89zM329 94q84 0 141.5 74.5t57.5 185.5q0 110 -57.5 184t-141.5 74q-88 0 -148 -74t-60 -184q0 -111 60 -185.5t148 -74.5zM396 307l52 -10q-6 -61 -36 -98.5
t-79 -37.5q-56 0 -94 50t-38 137q0 92 37.5 143.5t94.5 51.5q49 0 78.5 -37.5t34.5 -93.5l-52 -10q-3 39 -18.5 65t-42.5 26q-34 0 -55.5 -37.5t-21.5 -107.5q0 -67 22 -102.5t55 -35.5q56 0 63 97z" />
    <glyph glyph-name="ordfeminine" unicode="&#xaa;" 
d="M399 384v32h-1q-6 -13 -30 -27t-62 -14q-53 0 -80 25t-27 64t24 61t81 37q50 13 68 22.5t18 28.5q0 42 -60 42q-62 0 -73 -59l-50 19q8 39 39.5 64.5t82.5 25.5q54 0 87.5 -28t33.5 -86v-207h-51zM316 519q-37 -9 -48.5 -20.5t-11.5 -30.5q0 -43 55 -43q40 0 61 17.5
t21 42.5v69h-1q-8 -17 -76 -35z" />
    <glyph glyph-name="guillemotleft" unicode="&#xab;" 
d="M243 98l-108 183l108 186h82l-109 -186l109 -183h-82zM432 98l-108 183l108 186h82l-109 -186l109 -183h-82z" />
    <glyph glyph-name="logicalnot" unicode="&#xac;" 
d="M86 376v75h477v-248h-80v173h-397z" />
    <glyph glyph-name="registered" unicode="&#xae;" 
d="M325 382q62 0 104.5 43t42.5 105t-42.5 104t-104.5 42t-103.5 -42t-41.5 -104q0 -63 41.5 -105.5t103.5 -42.5zM325 354q-74 0 -125 51t-51 125t51 125t125 51t125 -51t51 -125t-51 -125t-125 -51zM264 424v210h64q76 0 76 -62q0 -48 -52 -60l47 -88h-32l-44 86h-32v-86
h-27zM291 535h38q46 0 46 37t-47 37h-37v-74z" />
    <glyph glyph-name="macron" unicode="&#xaf;" 
d="M181 620v61h288v-61h-288z" />
    <glyph glyph-name="degree" unicode="&#xb0;" 
d="M324 487q-59 0 -97.5 40.5t-38.5 100.5q0 59 39.5 101t96.5 42q59 0 98 -41t39 -102t-38.5 -101t-98.5 -40zM324 547q69 0 69 81q0 83 -69 83t-69 -83q0 -81 69 -81z" />
    <glyph glyph-name="plusminus" unicode="&#xb1;" 
d="M73 418v70h214v167h75v-167h214v-70h-214v-188h-75v188h-214zM101 96v70h456v-70h-456z" />
    <glyph glyph-name="twosuperior" unicode="&#xb2;" 
d="M183 473v52q0 53 26 90q19 25 94 64l17.5 10t17 9t14.5 8t13.5 9t11.5 8.5t10.5 9.5t7 9.5t6 11t3 12.5t1.5 14q0 26 -19.5 46t-55.5 20q-79 0 -87 -92l-64 8q4 68 44 105.5t107 37.5q62 0 100 -35.5t38 -93.5q0 -50 -30 -79.5t-84 -56.5q-77 -41 -88 -58
q-10 -13 -10 -43h215v-66h-288z" />
    <glyph glyph-name="threesuperior" unicode="&#xb3;" 
d="M172 614l65 14q6 -51 28.5 -75.5t64.5 -24.5q41 0 62.5 19.5t21.5 51.5q0 35 -23 54t-65 19h-26v53h20q29 0 52.5 13.5t23.5 43.5q0 29 -18 46t-51 17q-62 0 -72 -71l-62 12q5 55 42 87t94 32q56 0 93 -31t37 -83q0 -35 -18.5 -56.5t-39.5 -28.5v-2q29 -9 52.5 -36
t23.5 -73q0 -55 -39.5 -91t-107.5 -36q-65 0 -107 36.5t-51 109.5z" />
    <glyph glyph-name="acute" unicode="&#xb4;" 
d="M236 595l78 121h100l-107 -121h-71z" />
    <glyph glyph-name="mu" unicode="&#xb5;" 
d="M109 -225v755h82v-321q0 -73 37 -110.5t100 -37.5q60 0 95.5 37.5t35.5 100.5v331h81v-530h-80v51h-2q-4 -8 -18.5 -21.5t-47.5 -29t-70 -15.5q-87 0 -133 50v-260h-80z" />
    <glyph glyph-name="paragraph" unicode="&#xb6;" 
d="M260 -136v444q-68 2 -114.5 48t-46.5 118q0 77 47 121.5t118 44.5h287v-776h-69v703h-148v-703h-74z" />
    <glyph glyph-name="periodcentered" unicode="&#xb7;" 
d="M266 322v118h118v-118h-118z" />
    <glyph glyph-name="cedilla" unicode="&#xb8;" 
d="M216 -174l29 40q37 -29 75 -29q60 0 60 45q0 41 -48 41q-16 0 -33 -4.5t-25 -9.5l-9 -5l-29 16l47 80h43l-37 -58q21 14 58 14q35 0 60.5 -19.5t25.5 -55.5q0 -41 -29 -66.5t-87 -25.5q-55 0 -101 37z" />
    <glyph glyph-name="onesuperior" unicode="&#xb9;" 
d="M181 473v62h116v288l-92 -57v73l98 61h59v-365h107v-62h-288z" />
    <glyph glyph-name="ordmasculine" unicode="&#xba;" 
d="M326 429q36 0 58.5 29.5t22.5 82.5t-22.5 82t-58.5 29q-37 0 -60 -29t-23 -82q0 -54 23 -83t60 -29zM326 375q-62 0 -102 44t-40 122q0 77 41 121t101 44q59 0 99.5 -44t40.5 -121q0 -78 -39.5 -122t-100.5 -44z" />
    <glyph glyph-name="guillemotright" unicode="&#xbb;" 
d="M464 281l-108 -183h-82l109 183l-109 186h82zM275 281l-108 -183h-82l109 183l-109 186h82z" />
    <glyph glyph-name="onequarter" unicode="&#xbc;" 
d="M171 -89v61l162 267h95v-267h52v-61h-52v-99h-65v99h-192zM232 -28h131v211h-2zM110 319v60h430v-60h-430zM181 463v62h116v288l-92 -57v73l98 61h59v-365h107v-62h-288z" />
    <glyph glyph-name="onehalf" unicode="&#xbd;" 
d="M110 319v60h430v-60h-430zM181 463v62h116v288l-92 -57v73l98 61h59v-365h107v-62h-288zM183 -188v52q0 53 26 90q19 25 94 64l17.5 10t17 9t14.5 8t13.5 9t11.5 8.5t10.5 9.5t7 9.5t6 11t3 12.5t1.5 14q0 26 -19.5 46t-55.5 20q-79 0 -87 -92l-64 8q4 68 44 105.5
t107 37.5q62 0 100 -35.5t38 -93.5q0 -50 -30 -79.5t-84 -56.5q-77 -41 -88 -58q-10 -13 -10 -43h215v-66h-288z" />
    <glyph glyph-name="threequarters" unicode="&#xbe;" 
d="M110 320v60h430v-60h-430zM173 604l65 14q6 -51 28.5 -75.5t64.5 -24.5q41 0 62.5 19.5t21.5 51.5q0 35 -23 54t-65 19h-26v53h20q29 0 52.5 13.5t23.5 43.5q0 29 -18 46t-51 17q-62 0 -72 -71l-62 12q5 55 42 87t94 32q56 0 93 -31t37 -83q0 -35 -18.5 -56.5
t-39.5 -28.5v-2q29 -9 52.5 -36t23.5 -73q0 -55 -39.5 -91t-107.5 -36q-65 0 -107 36.5t-51 109.5zM171 -89v61l162 267h95v-267h52v-61h-52v-99h-65v99h-192zM232 -28h131v211h-2z" />
    <glyph glyph-name="questiondown" unicode="&#xbf;" 
d="M391 340v-55q0 -36 -17.5 -62t-65.5 -62q-35 -25 -47.5 -35t-34 -31.5t-29 -42.5t-7.5 -48q0 -44 31 -78.5t96 -34.5q134 0 144 152l81 -8q-2 -98 -61 -159t-166 -61q-91 0 -149.5 52.5t-58.5 133.5q0 46 16 80.5t34 51.5t59 48l29.5 23t25.5 20t17 15.5t14.5 16.5
t6.5 16t3 21v47h79zM407 530v-115h-117v115h117z" />
    <glyph glyph-name="Agrave" unicode="&#xc0;" 
d="M513 0l-47 137h-287l-43 -137h-87l232 700h87l232 -700h-87zM442 209l-117 380h-2l-121 -380h240zM289 765l-108 121h101l78 -121h-71z" />
    <glyph glyph-name="Aacute" unicode="&#xc1;" 
d="M513 0l-47 137h-287l-43 -137h-87l232 700h87l232 -700h-87zM442 209l-117 380h-2l-121 -380h240zM291 765l79 121h100l-108 -121h-71z" />
    <glyph glyph-name="Acircumflex" unicode="&#xc2;" 
d="M513 0l-47 137h-287l-43 -137h-87l232 700h87l232 -700h-87zM442 209l-117 380h-2l-121 -380h240zM205 785l66 85h109l66 -85l-48 -38l-73 92l-73 -92z" />
    <glyph glyph-name="Atilde" unicode="&#xc3;" 
d="M513 0l-47 137h-287l-43 -137h-87l232 700h87l232 -700h-87zM442 209l-117 380h-2l-121 -380h240zM229 765h-44q17 93 89 93q27 0 62 -18.5t52 -18.5q28 0 36 32h44q-17 -93 -88 -93q-28 0 -63.5 18.5t-51.5 18.5q-28 0 -36 -32z" />
    <glyph glyph-name="Adieresis" unicode="&#xc4;" 
d="M513 0l-47 137h-287l-43 -137h-87l232 700h87l232 -700h-87zM442 209l-117 380h-2l-121 -380h240zM185 765v91h91v-91h-91zM377 765v91h91v-91h-91z" />
    <glyph glyph-name="Aring" unicode="&#xc5;" 
d="M513 0l-47 137h-287l-43 -137h-87l230 694q-52 28 -52 92q0 42 28 72t70 30q43 0 70.5 -29.5t27.5 -72.5q0 -66 -53 -92l230 -694h-87zM442 209l-117 380h-2l-121 -380h240zM325 729q20 0 34 15t14 43t-14 42.5t-34 14.5t-33.5 -14.5t-13.5 -42.5t14 -43t33 -15z" />
    <glyph glyph-name="AE" unicode="&#xc6;" 
d="M35 0l263 700h301v-76h-166v-227h138v-73h-138v-248h166v-76h-244v149h-180l-55 -149h-85zM200 221h155v413h-2z" />
    <glyph glyph-name="Ccedilla" unicode="&#xc7;" 
d="M268 -174l29 40q37 -29 75 -29q60 0 60 45q0 41 -48 41q-16 0 -33 -4.5t-25 -9.5l-9 -5l-29 16l38 66q-109 8 -179 99t-70 271q0 172 77.5 265.5t191.5 93.5q98 0 164 -68t79 -176l-84 -15q-12 79 -50.5 129.5t-108.5 50.5q-81 0 -130 -70.5t-49 -209.5q0 -145 48 -219
t131 -74q73 0 112 54.5t46 142.5l87 -11q-8 -114 -67.5 -184.5t-154.5 -78.5l-28 -44q21 14 58 14q35 0 60.5 -19.5t25.5 -55.5q0 -41 -29 -66.5t-87 -25.5q-55 0 -101 37z" />
    <glyph glyph-name="Egrave" unicode="&#xc8;" 
d="M132 0v700h414v-76h-328v-227h300v-74h-300v-247h328v-76h-414zM330 765l-108 121h101l78 -121h-71z" />
    <glyph glyph-name="Eacute" unicode="&#xc9;" 
d="M132 0v700h414v-76h-328v-227h300v-74h-300v-247h328v-76h-414zM300 765l79 121h100l-108 -121h-71z" />
    <glyph glyph-name="Ecircumflex" unicode="&#xca;" 
d="M132 0v700h414v-76h-328v-227h300v-74h-300v-247h328v-76h-414zM221 785l66 85h109l66 -85l-48 -38l-73 92l-73 -92z" />
    <glyph glyph-name="Edieresis" unicode="&#xcb;" 
d="M132 0v700h414v-76h-328v-227h300v-74h-300v-247h328v-76h-414zM200 765v91h91v-91h-91zM392 765v91h91v-91h-91z" />
    <glyph glyph-name="Igrave" unicode="&#xcc;" 
d="M115 625v75h420v-75h-168v-550h168v-75h-420v75h167v550h-167zM290 765l-108 121h101l78 -121h-71z" />
    <glyph glyph-name="Iacute" unicode="&#xcd;" 
d="M115 625v75h420v-75h-168v-550h168v-75h-420v75h167v550h-167zM279 765l79 121h100l-108 -121h-71z" />
    <glyph glyph-name="Icircumflex" unicode="&#xce;" 
d="M115 625v75h420v-75h-168v-550h168v-75h-420v75h167v550h-167zM205 785l66 85h109l66 -85l-48 -38l-73 92l-73 -92z" />
    <glyph glyph-name="Idieresis" unicode="&#xcf;" 
d="M115 625v75h420v-75h-168v-550h168v-75h-420v75h167v550h-167zM184 765v91h91v-91h-91zM376 765v91h91v-91h-91z" />
    <glyph glyph-name="Eth" unicode="&#xd0;" 
d="M120 0v320h-68v78h68v302h159q60 0 113 -21t96 -62t68.5 -109.5t25.5 -156.5q0 -96 -26 -167t-71 -109.5t-97.5 -56.5t-114.5 -18h-153zM203 76h63q228 0 228 275q0 132 -59.5 202.5t-162.5 70.5h-69v-226h186v-78h-186v-244z" />
    <glyph glyph-name="Ntilde" unicode="&#xd1;" 
d="M98 0v700h87l279 -558h2v558h80v-700h-85l-281 558h-2v-558h-80zM240 765h-44q17 93 89 93q27 0 62 -18.5t52 -18.5q28 0 36 32h44q-17 -93 -88 -93q-28 0 -63.5 18.5t-51.5 18.5q-28 0 -36 -32z" />
    <glyph glyph-name="Ograve" unicode="&#xd2;" 
d="M325 63q78 0 126.5 72.5t48.5 216.5q0 140 -48 212t-127 72t-127 -70t-48 -210q0 -144 48 -218.5t127 -74.5zM325 -15q-53 0 -99 21t-84 63.5t-60 116t-22 170.5q0 171 78.5 265t186.5 94t186.5 -96t78.5 -267q0 -97 -22.5 -170t-60.5 -114.5t-84 -62t-98 -20.5zM294 765
l-108 121h101l78 -121h-71z" />
    <glyph glyph-name="Oacute" unicode="&#xd3;" 
d="M325 63q78 0 126.5 72.5t48.5 216.5q0 140 -48 212t-127 72t-127 -70t-48 -210q0 -144 48 -218.5t127 -74.5zM325 -15q-53 0 -99 21t-84 63.5t-60 116t-22 170.5q0 171 78.5 265t186.5 94t186.5 -96t78.5 -267q0 -97 -22.5 -170t-60.5 -114.5t-84 -62t-98 -20.5zM288 765
l79 121h100l-108 -121h-71z" />
    <glyph glyph-name="Ocircumflex" unicode="&#xd4;" 
d="M325 63q78 0 126.5 72.5t48.5 216.5q0 140 -48 212t-127 72t-127 -70t-48 -210q0 -144 48 -218.5t127 -74.5zM325 -15q-53 0 -99 21t-84 63.5t-60 116t-22 170.5q0 171 78.5 265t186.5 94t186.5 -96t78.5 -267q0 -97 -22.5 -170t-60.5 -114.5t-84 -62t-98 -20.5zM213 785
l66 85h109l66 -85l-48 -38l-73 92l-73 -92z" />
    <glyph glyph-name="Otilde" unicode="&#xd5;" 
d="M325 63q78 0 126.5 72.5t48.5 216.5q0 140 -48 212t-127 72t-127 -70t-48 -210q0 -144 48 -218.5t127 -74.5zM325 -15q-53 0 -99 21t-84 63.5t-60 116t-22 170.5q0 171 78.5 265t186.5 94t186.5 -96t78.5 -267q0 -97 -22.5 -170t-60.5 -114.5t-84 -62t-98 -20.5zM235 765
h-44q17 93 89 93q27 0 62 -18.5t52 -18.5q28 0 36 32h44q-17 -93 -88 -93q-28 0 -63.5 18.5t-51.5 18.5q-28 0 -36 -32z" />
    <glyph glyph-name="Odieresis" unicode="&#xd6;" 
d="M325 63q78 0 126.5 72.5t48.5 216.5q0 140 -48 212t-127 72t-127 -70t-48 -210q0 -144 48 -218.5t127 -74.5zM325 -15q-53 0 -99 21t-84 63.5t-60 116t-22 170.5q0 171 78.5 265t186.5 94t186.5 -96t78.5 -267q0 -97 -22.5 -170t-60.5 -114.5t-84 -62t-98 -20.5zM188 765
v91h91v-91h-91zM380 765v91h91v-91h-91z" />
    <glyph glyph-name="multiply" unicode="&#xd7;" 
d="M106 168l169 168l-159 159l51 50l158 -158l159 158l50 -50l-159 -159l169 -168l-50 -50l-169 168l-168 -168z" />
    <glyph glyph-name="Oslash" unicode="&#xd8;" 
d="M325 -15q-89 0 -152 53l-30 -53l-41 23l37 66q-77 97 -77 282q0 171 77.5 265t185.5 94q82 0 148 -57l33 57l41 -24l-40 -69q81 -99 81 -270q0 -187 -76 -277t-187 -90zM325 63q78 0 126.5 72.5t48.5 216.5q0 118 -37 192l-247 -431q43 -50 109 -50zM150 356
q0 -125 37 -199l246 431q-43 48 -108 48q-79 0 -127 -70t-48 -210z" />
    <glyph glyph-name="Ugrave" unicode="&#xd9;" 
d="M74 228v472h85v-466q0 -171 165 -171q82 0 124.5 43.5t42.5 125.5v468h84v-472q0 -119 -66 -181t-185 -62q-118 0 -184 62t-66 181zM308 765l-108 121h101l78 -121h-71z" />
    <glyph glyph-name="Uacute" unicode="&#xda;" 
d="M74 228v472h85v-466q0 -171 165 -171q82 0 124.5 43.5t42.5 125.5v468h84v-472q0 -119 -66 -181t-185 -62q-118 0 -184 62t-66 181zM294 765l79 121h100l-108 -121h-71z" />
    <glyph glyph-name="Ucircumflex" unicode="&#xdb;" 
d="M74 228v472h85v-466q0 -171 165 -171q82 0 124.5 43.5t42.5 125.5v468h84v-472q0 -119 -66 -181t-185 -62q-118 0 -184 62t-66 181zM215 785l66 85h109l66 -85l-48 -38l-73 92l-73 -92z" />
    <glyph glyph-name="Udieresis" unicode="&#xdc;" 
d="M74 228v472h85v-466q0 -171 165 -171q82 0 124.5 43.5t42.5 125.5v468h84v-472q0 -119 -66 -181t-185 -62q-118 0 -184 62t-66 181zM190 765v91h91v-91h-91zM382 765v91h91v-91h-91z" />
    <glyph glyph-name="Yacute" unicode="&#xdd;" 
d="M283 0v295l-231 405h94l178 -325h2l178 325h94l-231 -405v-295h-84zM283 765l79 121h100l-108 -121h-71z" />
    <glyph glyph-name="Thorn" unicode="&#xde;" 
d="M132 0v700h83v-116h127q111 0 178 -58t67 -165q0 -109 -64 -165.5t-181 -56.5h-127v-139h-83zM215 215h123q76 0 121.5 35.5t45.5 110.5t-45 111t-122 36h-123v-293z" />
    <glyph glyph-name="germandbls" unicode="&#xdf;" 
d="M131 0v492q0 108 60 165.5t153 57.5q88 0 145.5 -52t57.5 -136q0 -32 -10.5 -58.5t-25.5 -41.5t-26.5 -23t-19.5 -11v-2q14 -4 29 -13.5t36 -29t34.5 -54.5t13.5 -80q0 -214 -233 -214h-32v72h32q77 0 116 37t39 107q0 133 -139 133h-48v68h29q57 0 92.5 26.5t35.5 80.5
q0 53 -32 85t-91 32q-133 0 -133 -168v-473h-83z" />
    <glyph glyph-name="agrave" unicode="&#xe0;" 
d="M460 0v58h-2q-15 -26 -57 -49.5t-105 -23.5q-88 0 -134.5 43t-46.5 108q0 66 41.5 103.5t138.5 62.5q83 21 117.5 39t34.5 54q0 33 -30 55t-81 22q-106 0 -129 -105l-76 22q12 69 65.5 112.5t136.5 43.5q89 0 145 -45t56 -122v-378h-74zM314 239q-68 -19 -92.5 -41
t-24.5 -57q0 -83 105 -83q72 0 111 32.5t39 79.5v132h-2q-14 -29 -136 -63zM304 595l-108 121h101l78 -121h-71z" />
    <glyph glyph-name="aacute" unicode="&#xe1;" 
d="M460 0v58h-2q-15 -26 -57 -49.5t-105 -23.5q-88 0 -134.5 43t-46.5 108q0 66 41.5 103.5t138.5 62.5q83 21 117.5 39t34.5 54q0 33 -30 55t-81 22q-106 0 -129 -105l-76 22q12 69 65.5 112.5t136.5 43.5q89 0 145 -45t56 -122v-378h-74zM314 239q-68 -19 -92.5 -41
t-24.5 -57q0 -83 105 -83q72 0 111 32.5t39 79.5v132h-2q-14 -29 -136 -63zM301 595l78 121h100l-107 -121h-71z" />
    <glyph glyph-name="acircumflex" unicode="&#xe2;" 
d="M460 0v58h-2q-15 -26 -57 -49.5t-105 -23.5q-88 0 -134.5 43t-46.5 108q0 66 41.5 103.5t138.5 62.5q83 21 117.5 39t34.5 54q0 33 -30 55t-81 22q-106 0 -129 -105l-76 22q12 69 65.5 112.5t136.5 43.5q89 0 145 -45t56 -122v-378h-74zM314 239q-68 -19 -92.5 -41
t-24.5 -57q0 -83 105 -83q72 0 111 32.5t39 79.5v132h-2q-14 -29 -136 -63zM215 620l66 85h109l66 -85l-48 -38l-73 92l-73 -92z" />
    <glyph glyph-name="atilde" unicode="&#xe3;" 
d="M460 0v58h-2q-15 -26 -57 -49.5t-105 -23.5q-88 0 -134.5 43t-46.5 108q0 66 41.5 103.5t138.5 62.5q83 21 117.5 39t34.5 54q0 33 -30 55t-81 22q-106 0 -129 -105l-76 22q12 69 65.5 112.5t136.5 43.5q89 0 145 -45t56 -122v-378h-74zM314 239q-68 -19 -92.5 -41
t-24.5 -57q0 -83 105 -83q72 0 111 32.5t39 79.5v132h-2q-14 -29 -136 -63zM229 602h-44q18 94 89 94q27 0 62 -19t52 -19q28 0 36 33h44q-18 -94 -88 -94q-28 0 -63.5 19t-51.5 19q-28 0 -36 -33z" />
    <glyph glyph-name="adieresis" unicode="&#xe4;" 
d="M460 0v58h-2q-15 -26 -57 -49.5t-105 -23.5q-88 0 -134.5 43t-46.5 108q0 66 41.5 103.5t138.5 62.5q83 21 117.5 39t34.5 54q0 33 -30 55t-81 22q-106 0 -129 -105l-76 22q12 69 65.5 112.5t136.5 43.5q89 0 145 -45t56 -122v-378h-74zM314 239q-68 -19 -92.5 -41
t-24.5 -57q0 -83 105 -83q72 0 111 32.5t39 79.5v132h-2q-14 -29 -136 -63zM185 611v91h91v-91h-91zM377 611v91h91v-91h-91z" />
    <glyph glyph-name="aring" unicode="&#xe5;" 
d="M460 0v58h-2q-15 -26 -57 -49.5t-105 -23.5q-88 0 -134.5 43t-46.5 108q0 66 41.5 103.5t138.5 62.5q83 21 117.5 39t34.5 54q0 33 -30 55t-81 22q-106 0 -129 -105l-76 22q10 55 46 94.5t94 54.5q-44 27 -44 87q0 42 28 72t70 30q43 0 70.5 -29.5t27.5 -72.5
q0 -55 -40 -84q69 -12 110 -55t41 -108v-378h-74zM314 239q-68 -19 -92.5 -41t-24.5 -57q0 -83 105 -83q72 0 111 32.5t39 79.5v132h-2q-14 -29 -136 -63zM325 567q20 0 34 15.5t14 43.5q0 27 -14 41.5t-34 14.5t-33.5 -14t-13.5 -42t14 -43.5t33 -15.5z" />
    <glyph glyph-name="ae" unicode="&#xe6;" 
d="M169 302q57 24 79.5 44.5t22.5 46.5q0 33 -18 56.5t-48 23.5q-63 0 -75 -103l-67 14q5 70 45 115.5t96 45.5q43 0 77 -23t48 -69q44 92 122 92q71 0 112 -74t41 -206v-24h-250q1 -76 27.5 -129t74.5 -53q19 0 33.5 10.5t24.5 31t14.5 34.5t9.5 36l65 -24
q-15 -72 -52.5 -117t-92.5 -45q-94 0 -140 113q-39 -113 -146 -113q-58 0 -92 43t-34 109q0 114 123 165zM356 307h174q0 66 -19.5 115.5t-58.5 49.5q-33 0 -56 -29t-31.5 -64.5t-8.5 -71.5zM187 242q-66 -38 -66 -101q0 -37 16 -60t47 -23q38 0 65 33.5t27 78.5v135h-2
q-2 -11 -20.5 -24t-66.5 -39z" />
    <glyph glyph-name="ccedilla" unicode="&#xe7;" 
d="M259 -174l29 40q37 -29 75 -29q60 0 60 45q0 41 -48 41q-16 0 -33 -4.5t-26 -9.5l-8 -5l-29 16l39 68q-93 12 -149.5 85t-56.5 192q0 129 69.5 204.5t173.5 75.5q85 0 144.5 -54t72.5 -140l-77 -16q-12 59 -46 97.5t-94 38.5q-72 0 -116 -54.5t-44 -151.5q0 -96 43 -151
t118 -55q59 0 96 42.5t45 101.5l79 -16q-13 -91 -72 -145.5t-145 -56.5l-27 -43q21 14 58 14q35 0 60.5 -19.5t25.5 -55.5q0 -41 -29 -66.5t-87 -25.5q-55 0 -101 37z" />
    <glyph glyph-name="egrave" unicode="&#xe8;" 
d="M486 164l67 -44q-30 -58 -85.5 -96.5t-136.5 -38.5q-108 0 -178 76.5t-70 203.5t68.5 203.5t175.5 76.5t173.5 -75t66.5 -205v-24h-400q1 -76 42.5 -129t119.5 -53q36 0 63.5 9.5t45 27t26.5 31t19 31.5zM169 306h315q-2 67 -40 116t-117 49q-77 0 -117 -52.5t-41 -112.5
zM306 595l-108 121h101l78 -121h-71z" />
    <glyph glyph-name="eacute" unicode="&#xe9;" 
d="M486 164l67 -44q-30 -58 -85.5 -96.5t-136.5 -38.5q-108 0 -178 76.5t-70 203.5t68.5 203.5t175.5 76.5t173.5 -75t66.5 -205v-24h-400q1 -76 42.5 -129t119.5 -53q36 0 63.5 9.5t45 27t26.5 31t19 31.5zM169 306h315q-2 67 -40 116t-117 49q-77 0 -117 -52.5t-41 -112.5
zM296 595l78 121h100l-107 -121h-71z" />
    <glyph glyph-name="ecircumflex" unicode="&#xea;" 
d="M486 164l67 -44q-30 -58 -85.5 -96.5t-136.5 -38.5q-108 0 -178 76.5t-70 203.5t68.5 203.5t175.5 76.5t173.5 -75t66.5 -205v-24h-400q1 -76 42.5 -129t119.5 -53q36 0 63.5 9.5t45 27t26.5 31t19 31.5zM169 306h315q-2 67 -40 116t-117 49q-77 0 -117 -52.5t-41 -112.5
zM211 620l66 85h109l66 -85l-48 -38l-73 92l-73 -92z" />
    <glyph glyph-name="edieresis" unicode="&#xeb;" 
d="M486 164l67 -44q-30 -58 -85.5 -96.5t-136.5 -38.5q-108 0 -178 76.5t-70 203.5t68.5 203.5t175.5 76.5t173.5 -75t66.5 -205v-24h-400q1 -76 42.5 -129t119.5 -53q36 0 63.5 9.5t45 27t26.5 31t19 31.5zM169 306h315q-2 67 -40 116t-117 49q-77 0 -117 -52.5t-41 -112.5
zM191 611v91h91v-91h-91zM383 611v91h91v-91h-91z" />
    <glyph glyph-name="igrave" unicode="&#xec;" 
d="M343 595l-108 121h101l78 -121h-71zM130 460v70h260v-460h175v-70h-440v70h184v390h-179z" />
    <glyph glyph-name="iacute" unicode="&#xed;" 
d="M239 595l78 121h100l-107 -121h-71zM130 460v70h260v-460h175v-70h-440v70h184v390h-179z" />
    <glyph glyph-name="icircumflex" unicode="&#xee;" 
d="M130 460v70h260v-460h175v-70h-440v70h184v390h-179zM214 620l66 85h109l66 -85l-48 -38l-73 92l-73 -92z" />
    <glyph glyph-name="idieresis" unicode="&#xef;" 
d="M183 611v91h91v-91h-91zM375 611v91h91v-91h-91zM130 460v70h260v-460h175v-70h-440v70h184v390h-179z" />
    <glyph glyph-name="eth" unicode="&#xf0;" 
d="M355 775q23 -26 52 -63l132 37l13 -43l-118 -33q129 -196 129 -406q0 -137 -63.5 -209.5t-170.5 -72.5q-110 0 -175 73t-65 208q0 132 64 205.5t160 73.5q89 0 137 -52l2 1q-27 83 -84 161l-148 -41l-13 43l131 36q-31 37 -75 80v2h92zM329 58q154 0 154 206
q0 101 -40.5 155.5t-122.5 54.5q-71 0 -112 -52t-41 -158q0 -104 42.5 -155t119.5 -51z" />
    <glyph glyph-name="ntilde" unicode="&#xf1;" 
d="M116 0v530h78v-51h2q22 29 63 47.5t86 18.5q86 0 138 -53t52 -144v-348h-82v322q0 148 -120 148q-62 0 -98.5 -35t-36.5 -97v-338h-82zM237 602h-44q18 94 89 94q27 0 62 -19t52 -19q28 0 36 33h44q-18 -94 -88 -94q-28 0 -63.5 19t-51.5 19q-28 0 -36 -33z" />
    <glyph glyph-name="ograve" unicode="&#xf2;" 
d="M327 59q67 0 111 54.5t44 151.5q0 98 -43.5 152t-111.5 54q-70 0 -114.5 -53.5t-44.5 -152.5t44.5 -152.5t114.5 -53.5zM327 -15q-105 0 -174 74.5t-69 205.5q0 130 71 205t172 75q100 0 169.5 -75t69.5 -205q0 -131 -67.5 -205.5t-171.5 -74.5zM286 595l-108 121h101
l78 -121h-71z" />
    <glyph glyph-name="oacute" unicode="&#xf3;" 
d="M327 59q67 0 111 54.5t44 151.5q0 98 -43.5 152t-111.5 54q-70 0 -114.5 -53.5t-44.5 -152.5t44.5 -152.5t114.5 -53.5zM327 -15q-105 0 -174 74.5t-69 205.5q0 130 71 205t172 75q100 0 169.5 -75t69.5 -205q0 -131 -67.5 -205.5t-171.5 -74.5zM298 595l78 121h100
l-107 -121h-71z" />
    <glyph glyph-name="ocircumflex" unicode="&#xf4;" 
d="M327 59q67 0 111 54.5t44 151.5q0 98 -43.5 152t-111.5 54q-70 0 -114.5 -53.5t-44.5 -152.5t44.5 -152.5t114.5 -53.5zM327 -15q-105 0 -174 74.5t-69 205.5q0 130 71 205t172 75q100 0 169.5 -75t69.5 -205q0 -131 -67.5 -205.5t-171.5 -74.5zM213 620l66 85h109
l66 -85l-48 -38l-73 92l-73 -92z" />
    <glyph glyph-name="otilde" unicode="&#xf5;" 
d="M327 59q67 0 111 54.5t44 151.5q0 98 -43.5 152t-111.5 54q-70 0 -114.5 -53.5t-44.5 -152.5t44.5 -152.5t114.5 -53.5zM327 -15q-105 0 -174 74.5t-69 205.5q0 130 71 205t172 75q100 0 169.5 -75t69.5 -205q0 -131 -67.5 -205.5t-171.5 -74.5zM238 602h-44q18 94 89 94
q27 0 62 -19t52 -19q28 0 36 33h44q-18 -94 -88 -94q-28 0 -63.5 19t-51.5 19q-28 0 -36 -33z" />
    <glyph glyph-name="odieresis" unicode="&#xf6;" 
d="M327 59q67 0 111 54.5t44 151.5q0 98 -43.5 152t-111.5 54q-70 0 -114.5 -53.5t-44.5 -152.5t44.5 -152.5t114.5 -53.5zM327 -15q-105 0 -174 74.5t-69 205.5q0 130 71 205t172 75q100 0 169.5 -75t69.5 -205q0 -131 -67.5 -205.5t-171.5 -74.5zM193 611v91h91v-91h-91z
M385 611v91h91v-91h-91z" />
    <glyph glyph-name="divide" unicode="&#xf7;" 
d="M254 566q0 30 20.5 51t49.5 21q31 0 51.5 -21t20.5 -51q0 -29 -20.5 -49.5t-51.5 -20.5q-29 0 -49.5 20.5t-20.5 49.5zM254 141q0 30 20.5 50.5t49.5 20.5q31 0 51.5 -20.5t20.5 -50.5t-20.5 -50.5t-51.5 -20.5q-29 0 -49.5 20.5t-20.5 50.5zM133 319v70h384v-70h-384z
" />
    <glyph glyph-name="oslash" unicode="&#xf8;" 
d="M327 -15q-91 0 -152 54l-39 -50l-33 25l43 55q-60 74 -60 196q0 130 70 205t171 75q84 0 147 -54l39 50l33 -26l-43 -55q61 -75 61 -195q0 -132 -67 -206t-170 -74zM327 59q67 0 111.5 54.5t44.5 151.5q0 79 -30 131l-230 -296q43 -41 104 -41zM167 265q0 -79 30 -131
l230 296q-41 41 -100 41q-70 0 -115 -53.5t-45 -152.5z" />
    <glyph glyph-name="ugrave" unicode="&#xf9;" 
d="M120 185v345h82v-333q0 -74 28.5 -105t94.5 -31q60 0 92 37t32 103v329h82v-530h-81v51h-2q-5 -7 -15 -18t-46.5 -29.5t-79.5 -18.5q-88 0 -137.5 50t-49.5 150zM302 595l-108 121h101l78 -121h-71z" />
    <glyph glyph-name="uacute" unicode="&#xfa;" 
d="M120 185v345h82v-333q0 -74 28.5 -105t94.5 -31q60 0 92 37t32 103v329h82v-530h-81v51h-2q-5 -7 -15 -18t-46.5 -29.5t-79.5 -18.5q-88 0 -137.5 50t-49.5 150zM292 595l78 121h100l-107 -121h-71z" />
    <glyph glyph-name="ucircumflex" unicode="&#xfb;" 
d="M120 185v345h82v-333q0 -74 28.5 -105t94.5 -31q60 0 92 37t32 103v329h82v-530h-81v51h-2q-5 -7 -15 -18t-46.5 -29.5t-79.5 -18.5q-88 0 -137.5 50t-49.5 150zM213 620l66 85h109l66 -85l-48 -38l-73 92l-73 -92z" />
    <glyph glyph-name="udieresis" unicode="&#xfc;" 
d="M120 185v345h82v-333q0 -74 28.5 -105t94.5 -31q60 0 92 37t32 103v329h82v-530h-81v51h-2q-5 -7 -15 -18t-46.5 -29.5t-79.5 -18.5q-88 0 -137.5 50t-49.5 150zM190 611v91h91v-91h-91zM382 611v91h91v-91h-91z" />
    <glyph glyph-name="yacute" unicode="&#xfd;" 
d="M176 -225l100 265l-206 490h88l157 -385h2l141 385h86l-285 -755h-83zM302 595l78 121h100l-107 -121h-71z" />
    <glyph glyph-name="thorn" unicode="&#xfe;" 
d="M133 -225v955h80v-250h2q52 65 149 65q100 0 166 -76.5t66 -203.5q0 -128 -64.5 -204t-169.5 -76q-43 0 -84.5 18.5t-60.5 44.5h-2v-273h-82zM215 342v-168q0 -46 38.5 -80t97.5 -34q79 0 121.5 54t42.5 151t-43 151t-121 54q-61 0 -98.5 -39.5t-37.5 -88.5z" />
    <glyph glyph-name="ydieresis" unicode="&#xff;" 
d="M176 -225l100 265l-206 490h88l157 -385h2l141 385h86l-285 -755h-83zM192 611v91h91v-91h-91zM384 611v91h91v-91h-91z" />
    <glyph glyph-name="Amacron" unicode="&#x100;" 
d="M513 0l-47 137h-287l-43 -137h-87l232 700h87l232 -700h-87zM442 209l-117 380h-2l-121 -380h240zM182 765v61h288v-61h-288z" />
    <glyph glyph-name="amacron" unicode="&#x101;" 
d="M460 0v58h-2q-15 -26 -57 -49.5t-105 -23.5q-88 0 -134.5 43t-46.5 108q0 66 41.5 103.5t138.5 62.5q83 21 117.5 39t34.5 54q0 33 -30 55t-81 22q-106 0 -129 -105l-76 22q12 69 65.5 112.5t136.5 43.5q89 0 145 -45t56 -122v-378h-74zM314 239q-68 -19 -92.5 -41
t-24.5 -57q0 -83 105 -83q72 0 111 32.5t39 79.5v132h-2q-14 -29 -136 -63zM183 620v61h288v-61h-288z" />
    <glyph glyph-name="Abreve" unicode="&#x102;" 
d="M513 0l-47 137h-287l-43 -137h-87l232 700h87l232 -700h-87zM442 209l-117 380h-2l-121 -380h240zM202 874h44q11 -58 80 -58q36 0 56 16t23 42h46q0 -56 -35 -87.5t-90 -31.5q-56 0 -90 31.5t-34 87.5z" />
    <glyph glyph-name="abreve" unicode="&#x103;" 
d="M460 0v58h-2q-15 -26 -57 -49.5t-105 -23.5q-88 0 -134.5 43t-46.5 108q0 66 41.5 103.5t138.5 62.5q83 21 117.5 39t34.5 54q0 33 -30 55t-81 22q-106 0 -129 -105l-76 22q12 69 65.5 112.5t136.5 43.5q89 0 145 -45t56 -122v-378h-74zM314 239q-68 -19 -92.5 -41
t-24.5 -57q0 -83 105 -83q72 0 111 32.5t39 79.5v132h-2q-14 -29 -136 -63zM201 704h44q11 -58 80 -58q36 0 56 16t23 42h46q0 -56 -35 -87.5t-90 -31.5q-56 0 -90 31.5t-34 87.5z" />
    <glyph glyph-name="Aogonek" unicode="&#x104;" 
d="M513 0l-47 137h-287l-43 -137h-87l232 700h87l232 -700h-87zM442 209l-117 380h-2l-121 -380h240zM632 -119l32 -28q-51 -64 -123 -64q-40 0 -68 17t-28 57q0 75 99 137h56q-80 -72 -80 -117q0 -39 46 -39q34 0 66 37z" />
    <glyph glyph-name="aogonek" unicode="&#x105;" 
d="M460 0v58h-2q-15 -26 -57 -49.5t-105 -23.5q-88 0 -134.5 43t-46.5 108q0 66 41.5 103.5t138.5 62.5q83 21 117.5 39t34.5 54q0 33 -30 55t-81 22q-106 0 -129 -105l-76 22q12 69 65.5 112.5t136.5 43.5q89 0 145 -45t56 -122v-378q-80 -72 -80 -117q0 -39 46 -39
q34 0 66 37l32 -28q-51 -64 -123 -64q-40 0 -68 17t-28 57q0 75 99 137h-18zM314 239q-68 -19 -92.5 -41t-24.5 -57q0 -83 105 -83q72 0 111 32.5t39 79.5v132h-2q-14 -29 -136 -63z" />
    <glyph glyph-name="Cacute" unicode="&#x106;" 
d="M346 636q-81 0 -130 -70.5t-49 -209.5q0 -145 48 -219t131 -74q73 0 112 54.5t46 142.5l87 -11q-8 -121 -74 -192.5t-171 -71.5q-116 0 -192.5 91t-76.5 280q0 172 77.5 265.5t191.5 93.5q98 0 164 -68t79 -176l-84 -15q-12 79 -50.5 129.5t-108.5 50.5zM313 765l79 121
h100l-108 -121h-71z" />
    <glyph glyph-name="cacute" unicode="&#x107;" 
d="M497 203l79 -16q-13 -92 -73 -147t-148 -55q-107 0 -175 75t-68 205q0 129 69.5 204.5t173.5 75.5q85 0 144.5 -54t72.5 -140l-77 -16q-12 59 -46 97.5t-94 38.5q-72 0 -116 -54.5t-44 -151.5q0 -96 43 -151t118 -55q59 0 96 42.5t45 101.5zM308 595l78 121h100
l-107 -121h-71z" />
    <glyph glyph-name="Ccircumflex" unicode="&#x108;" 
d="M346 636q-81 0 -130 -70.5t-49 -209.5q0 -145 48 -219t131 -74q73 0 112 54.5t46 142.5l87 -11q-8 -121 -74 -192.5t-171 -71.5q-116 0 -192.5 91t-76.5 280q0 172 77.5 265.5t191.5 93.5q98 0 164 -68t79 -176l-84 -15q-12 79 -50.5 129.5t-108.5 50.5zM233 785l66 85
h109l66 -85l-48 -38l-73 92l-73 -92z" />
    <glyph glyph-name="ccircumflex" unicode="&#x109;" 
d="M497 203l79 -16q-13 -92 -73 -147t-148 -55q-107 0 -175 75t-68 205q0 129 69.5 204.5t173.5 75.5q85 0 144.5 -54t72.5 -140l-77 -16q-12 59 -46 97.5t-94 38.5q-72 0 -116 -54.5t-44 -151.5q0 -96 43 -151t118 -55q59 0 96 42.5t45 101.5zM233 620l66 85h109l66 -85
l-48 -38l-73 92l-73 -92z" />
    <glyph glyph-name="Cdotaccent" unicode="&#x10a;" 
d="M346 636q-81 0 -130 -70.5t-49 -209.5q0 -145 48 -219t131 -74q73 0 112 54.5t46 142.5l87 -11q-8 -121 -74 -192.5t-171 -71.5q-116 0 -192.5 91t-76.5 280q0 172 77.5 265.5t191.5 93.5q98 0 164 -68t79 -176l-84 -15q-12 79 -50.5 129.5t-108.5 50.5zM306 765v97h97
v-97h-97z" />
    <glyph glyph-name="cdotaccent" unicode="&#x10b;" 
d="M497 203l79 -16q-13 -92 -73 -147t-148 -55q-107 0 -175 75t-68 205q0 129 69.5 204.5t173.5 75.5q85 0 144.5 -54t72.5 -140l-77 -16q-12 59 -46 97.5t-94 38.5q-72 0 -116 -54.5t-44 -151.5q0 -96 43 -151t118 -55q59 0 96 42.5t45 101.5zM297 608v96h97v-96h-97z" />
    <glyph glyph-name="Ccaron" unicode="&#x10c;" 
d="M346 636q-81 0 -130 -70.5t-49 -209.5q0 -145 48 -219t131 -74q73 0 112 54.5t46 142.5l87 -11q-8 -121 -74 -192.5t-171 -71.5q-116 0 -192.5 91t-76.5 280q0 172 77.5 265.5t191.5 93.5q98 0 164 -68t79 -176l-84 -15q-12 79 -50.5 129.5t-108.5 50.5zM302 765l-66 85
l47 38l74 -92l73 92l47 -38l-66 -85h-109z" />
    <glyph glyph-name="ccaron" unicode="&#x10d;" 
d="M497 203l79 -16q-13 -92 -73 -147t-148 -55q-107 0 -175 75t-68 205q0 129 69.5 204.5t173.5 75.5q85 0 144.5 -54t72.5 -140l-77 -16q-12 59 -46 97.5t-94 38.5q-72 0 -116 -54.5t-44 -151.5q0 -96 43 -151t118 -55q59 0 96 42.5t45 101.5zM303 594l-66 85l47 38l74 -92
l73 92l47 -38l-66 -85h-109z" />
    <glyph glyph-name="Dcaron" unicode="&#x10e;" 
d="M182 76h93q228 0 228 275q0 132 -59.5 202.5t-162.5 70.5h-99v-548zM96 0v700h192q60 0 113.5 -21t97 -62t69 -109.5t25.5 -156.5q0 -96 -26 -167t-72 -109.5t-98.5 -56.5t-114.5 -18h-186zM221 765l-66 85l47 38l74 -92l73 92l47 -38l-66 -85h-109z" />
    <glyph glyph-name="dcaron" unicode="&#x10f;" 
d="M453 176v164q0 50 -37 90.5t-99 40.5q-79 0 -120 -54t-41 -152t41 -152t120 -54q58 0 97 35t39 82zM461 0v51h-2q-21 -25 -61.5 -45.5t-93.5 -20.5q-105 0 -168.5 76.5t-63.5 203.5t66.5 203.5t165.5 76.5q91 0 147 -66h2v251h82v-730h-74zM600 579l29 151h79l-52 -151
h-56z" />
    <glyph glyph-name="Dcroat" unicode="&#x110;" 
d="M120 0v320h-68v78h68v302h159q60 0 113 -21t96 -62t68.5 -109.5t25.5 -156.5q0 -96 -26 -167t-71 -109.5t-97.5 -56.5t-114.5 -18h-153zM203 76h63q228 0 228 275q0 132 -59.5 202.5t-162.5 70.5h-69v-226h186v-78h-186v-244z" />
    <glyph glyph-name="dcroat" unicode="&#x111;" 
d="M469 0v51h-2q-22 -25 -62 -45.5t-93 -20.5q-105 0 -167.5 76t-62.5 204q0 126 64.5 203t165.5 77q91 0 147 -66h2v158h-138v63h138v30h81v-30h65v-63h-65v-637h-73zM461 176v164q0 50 -37.5 90t-99.5 40q-78 0 -119.5 -53.5t-41.5 -151.5t41 -151.5t120 -53.5
q59 0 98 34.5t39 81.5z" />
    <glyph glyph-name="Emacron" unicode="&#x112;" 
d="M132 0v700h414v-76h-328v-227h300v-74h-300v-247h328v-76h-414zM197 765v61h288v-61h-288z" />
    <glyph glyph-name="emacron" unicode="&#x113;" 
d="M486 164l67 -44q-30 -58 -85.5 -96.5t-136.5 -38.5q-108 0 -178 76.5t-70 203.5t68.5 203.5t175.5 76.5t173.5 -75t66.5 -205v-24h-400q1 -76 42.5 -129t119.5 -53q36 0 63.5 9.5t45 27t26.5 31t19 31.5zM169 306h315q-2 67 -40 116t-117 49q-77 0 -117 -52.5t-41 -112.5
zM186 620v61h288v-61h-288z" />
    <glyph glyph-name="Ebreve" unicode="&#x114;" 
d="M132 0v700h414v-76h-328v-227h300v-74h-300v-247h328v-76h-414zM217 874h44q11 -58 80 -58q36 0 56 16t23 42h46q0 -56 -35 -87.5t-90 -31.5q-56 0 -90 31.5t-34 87.5z" />
    <glyph glyph-name="ebreve" unicode="&#x115;" 
d="M486 164l67 -44q-30 -58 -85.5 -96.5t-136.5 -38.5q-108 0 -178 76.5t-70 203.5t68.5 203.5t175.5 76.5t173.5 -75t66.5 -205v-24h-400q1 -76 42.5 -129t119.5 -53q36 0 63.5 9.5t45 27t26.5 31t19 31.5zM169 306h315q-2 67 -40 116t-117 49q-77 0 -117 -52.5t-41 -112.5
zM203 704h44q11 -58 80 -58q36 0 56 16t23 42h46q0 -56 -35 -87.5t-90 -31.5q-56 0 -90 31.5t-34 87.5z" />
    <glyph glyph-name="Edotaccent" unicode="&#x116;" 
d="M132 0v700h414v-76h-328v-227h300v-74h-300v-247h328v-76h-414zM293 765v97h97v-97h-97z" />
    <glyph glyph-name="edotaccent" unicode="&#x117;" 
d="M486 164l67 -44q-30 -58 -85.5 -96.5t-136.5 -38.5q-108 0 -178 76.5t-70 203.5t68.5 203.5t175.5 76.5t173.5 -75t66.5 -205v-24h-400q1 -76 42.5 -129t119.5 -53q36 0 63.5 9.5t45 27t26.5 31t19 31.5zM169 306h315q-2 67 -40 116t-117 49q-77 0 -117 -52.5t-41 -112.5
zM282 608v96h97v-96h-97z" />
    <glyph glyph-name="Eogonek" unicode="&#x118;" 
d="M132 0v700h414v-76h-328v-227h300v-74h-300v-247h328v-76h-108q-80 -72 -80 -117q0 -39 46 -39q34 0 66 37l32 -28q-51 -64 -123 -64q-40 0 -68 17t-28 57q0 75 99 137h-250z" />
    <glyph glyph-name="eogonek" unicode="&#x119;" 
d="M436 -119l32 -28q-51 -64 -123 -64q-40 0 -68 17t-28 57q0 66 76 122q-106 2 -174 78.5t-68 201.5q0 127 68.5 203.5t175.5 76.5t173.5 -75t66.5 -205v-24h-400q1 -76 42.5 -129t119.5 -53q36 0 63.5 9.5t45 27t26.5 31t19 31.5l3 6l67 -44q-52 -103 -157 -127
q-72 -67 -72 -110q0 -39 46 -39q34 0 66 37zM169 306h315q-2 67 -40 116t-117 49q-77 0 -117 -52.5t-41 -112.5z" />
    <glyph glyph-name="Ecaron" unicode="&#x11a;" 
d="M132 0v700h414v-76h-328v-227h300v-74h-300v-247h328v-76h-414zM287 765l-66 85l47 38l74 -92l73 92l47 -38l-66 -85h-109z" />
    <glyph glyph-name="ecaron" unicode="&#x11b;" 
d="M486 164l67 -44q-30 -58 -85.5 -96.5t-136.5 -38.5q-108 0 -178 76.5t-70 203.5t68.5 203.5t175.5 76.5t173.5 -75t66.5 -205v-24h-400q1 -76 42.5 -129t119.5 -53q36 0 63.5 9.5t45 27t26.5 31t19 31.5zM169 306h315q-2 67 -40 116t-117 49q-77 0 -117 -52.5t-41 -112.5
zM278 594l-66 85l47 38l74 -92l73 92l47 -38l-66 -85h-109z" />
    <glyph glyph-name="Gcircumflex" unicode="&#x11c;" 
d="M346 -15q-118 0 -195.5 92t-77.5 280q0 170 79.5 264t193.5 94q92 0 157 -64t81 -167l-83 -15q-12 75 -50.5 121t-104.5 46q-81 0 -132 -70.5t-51 -208.5q0 -144 50.5 -219t132.5 -75q74 0 118.5 55t42.5 149h-176v76h259v-68q0 -135 -68.5 -212.5t-175.5 -77.5zM213 785
l66 85h109l66 -85l-48 -38l-73 92l-73 -92z" />
    <glyph glyph-name="gcircumflex" unicode="&#x11d;" 
d="M121 -96l71 37q18 -50 48.5 -79t88.5 -29q64 0 99 37.5t35 104.5v71h-2q-52 -61 -147 -61q-105 0 -170 76t-65 204q0 127 67 203.5t167 76.5q96 0 149 -66h2v51h81v-538q0 -113 -57 -172.5t-157 -59.5q-81 0 -134.5 39.5t-75.5 104.5zM463 174v168q0 49 -37.5 89
t-99.5 40q-78 0 -120.5 -54.5t-42.5 -151.5q0 -98 42 -152t121 -54q59 0 98 34.5t39 80.5zM205 620l66 85h109l66 -85l-48 -38l-73 92l-73 -92z" />
    <glyph glyph-name="Gbreve" unicode="&#x11e;" 
d="M346 -15q-118 0 -195.5 92t-77.5 280q0 170 79.5 264t193.5 94q92 0 157 -64t81 -167l-83 -15q-12 75 -50.5 121t-104.5 46q-81 0 -132 -70.5t-51 -208.5q0 -144 50.5 -219t132.5 -75q74 0 118.5 55t42.5 149h-176v76h259v-68q0 -135 -68.5 -212.5t-175.5 -77.5zM209 874
h44q11 -58 80 -58q36 0 56 16t23 42h46q0 -56 -35 -87.5t-90 -31.5q-56 0 -90 31.5t-34 87.5z" />
    <glyph glyph-name="gbreve" unicode="&#x11f;" 
d="M121 -96l71 37q18 -50 48.5 -79t88.5 -29q64 0 99 37.5t35 104.5v71h-2q-52 -61 -147 -61q-105 0 -170 76t-65 204q0 127 67 203.5t167 76.5q96 0 149 -66h2v51h81v-538q0 -113 -57 -172.5t-157 -59.5q-81 0 -134.5 39.5t-75.5 104.5zM463 174v168q0 49 -37.5 89
t-99.5 40q-78 0 -120.5 -54.5t-42.5 -151.5q0 -98 42 -152t121 -54q59 0 98 34.5t39 80.5zM204 704h44q11 -58 80 -58q36 0 56 16t23 42h46q0 -56 -35 -87.5t-90 -31.5q-56 0 -90 31.5t-34 87.5z" />
    <glyph glyph-name="Gdotaccent" unicode="&#x120;" 
d="M346 -15q-118 0 -195.5 92t-77.5 280q0 170 79.5 264t193.5 94q92 0 157 -64t81 -167l-83 -15q-12 75 -50.5 121t-104.5 46q-81 0 -132 -70.5t-51 -208.5q0 -144 50.5 -219t132.5 -75q74 0 118.5 55t42.5 149h-176v76h259v-68q0 -135 -68.5 -212.5t-175.5 -77.5zM285 765
v97h97v-97h-97z" />
    <glyph glyph-name="gdotaccent" unicode="&#x121;" 
d="M121 -96l71 37q18 -50 48.5 -79t88.5 -29q64 0 99 37.5t35 104.5v71h-2q-52 -61 -147 -61q-105 0 -170 76t-65 204q0 127 67 203.5t167 76.5q96 0 149 -66h2v51h81v-538q0 -113 -57 -172.5t-157 -59.5q-81 0 -134.5 39.5t-75.5 104.5zM463 174v168q0 49 -37.5 89
t-99.5 40q-78 0 -120.5 -54.5t-42.5 -151.5q0 -98 42 -152t121 -54q59 0 98 34.5t39 80.5zM278 608v96h97v-96h-97z" />
    <glyph glyph-name="Gcommaaccent" unicode="&#x122;" 
d="M346 -15q-118 0 -195.5 92t-77.5 280q0 170 79.5 264t193.5 94q92 0 157 -64t81 -167l-83 -15q-12 75 -50.5 121t-104.5 46q-81 0 -132 -70.5t-51 -208.5q0 -144 50.5 -219t132.5 -75q74 0 118.5 55t42.5 149h-176v76h259v-68q0 -135 -68.5 -212.5t-175.5 -77.5z
M311 -229v35q28 4 38.5 16t10.5 35h-50v89h102v-75q0 -48 -23.5 -72.5t-77.5 -27.5z" />
    <glyph glyph-name="gcommaaccent" unicode="&#x123;" 
d="M121 -96l71 37q18 -50 48.5 -79t88.5 -29q64 0 99 37.5t35 104.5v71h-2q-52 -61 -147 -61q-105 0 -170 76t-65 204q0 127 67 203.5t167 76.5q96 0 149 -66h2v51h81v-538q0 -113 -57 -172.5t-157 -59.5q-81 0 -134.5 39.5t-75.5 104.5zM463 174v168q0 49 -37.5 89
t-99.5 40q-78 0 -120.5 -54.5t-42.5 -151.5q0 -98 42 -152t121 -54q59 0 98 34.5t39 80.5zM353 777v-32q-36 -5 -36 -45h41v-91h-93v78q0 83 88 90z" />
    <glyph glyph-name="Hcircumflex" unicode="&#x124;" 
d="M93 0v700h86v-301h293v301h85v-700h-85v325h-293v-325h-86zM204 785l66 85h109l66 -85l-48 -38l-73 92l-73 -92z" />
    <glyph glyph-name="hcircumflex" unicode="&#x125;" 
d="M120 0v730h82v-253h2q22 30 64.5 49t90.5 19q85 0 137.5 -51.5t52.5 -147.5v-346h-82v324q0 146 -123 146q-65 0 -103.5 -38t-38.5 -99v-333h-82zM246 620l66 85h109l66 -85l-48 -38l-73 92l-73 -92z" />
    <glyph glyph-name="Hbar" unicode="&#x126;" 
d="M116 0v505h-50v73h50v122h83v-122h252v122h83v-122h50v-73h-50v-505h-83v325h-252v-325h-83zM199 399h252v106h-252v-106z" />
    <glyph glyph-name="hbar" unicode="&#x127;" 
d="M132 0v637h-67v63h67v30h82v-30h137v-63h-137v-158h2q22 30 59.5 48t80.5 18q83 0 136 -53.5t53 -145.5v-346h-82v324q0 146 -122 146q-60 0 -93.5 -37.5t-33.5 -99.5v-333h-82z" />
    <glyph glyph-name="Itilde" unicode="&#x128;" 
d="M115 625v75h420v-75h-168v-550h168v-75h-420v75h167v550h-167zM228 765h-44q17 93 89 93q27 0 62 -18.5t52 -18.5q28 0 36 32h44q-17 -93 -88 -93q-28 0 -63.5 18.5t-51.5 18.5q-28 0 -36 -32z" />
    <glyph glyph-name="itilde" unicode="&#x129;" 
d="M227 602h-44q18 94 89 94q27 0 62 -19t52 -19q28 0 36 33h44q-18 -94 -88 -94q-28 0 -63.5 19t-51.5 19q-28 0 -36 -33zM130 460v70h260v-460h175v-70h-440v70h184v390h-179z" />
    <glyph glyph-name="Imacron" unicode="&#x12a;" 
d="M115 625v75h420v-75h-168v-550h168v-75h-420v75h167v550h-167zM181 765v61h288v-61h-288z" />
    <glyph glyph-name="imacron" unicode="&#x12b;" 
d="M181 620v61h288v-61h-288zM130 460v70h260v-460h175v-70h-440v70h184v390h-179z" />
    <glyph glyph-name="Ibreve" unicode="&#x12c;" 
d="M115 625v75h420v-75h-168v-550h168v-75h-420v75h167v550h-167zM201 874h44q11 -58 80 -58q36 0 56 16t23 42h46q0 -56 -35 -87.5t-90 -31.5q-56 0 -90 31.5t-34 87.5z" />
    <glyph glyph-name="ibreve" unicode="&#x12d;" 
d="M200 704h44q11 -58 80 -58q36 0 56 16t23 42h46q0 -56 -35 -87.5t-90 -31.5q-56 0 -90 31.5t-34 87.5zM130 460v70h260v-460h175v-70h-440v70h184v390h-179z" />
    <glyph glyph-name="Iogonek" unicode="&#x12e;" 
d="M407 -119l32 -28q-51 -64 -123 -64q-40 0 -68 17t-28 57q0 75 99 137h-204v75h167v550h-167v75h420v-75h-168v-550h168v-75h-160q-80 -72 -80 -117q0 -39 46 -39q34 0 66 37z" />
    <glyph glyph-name="iogonek" unicode="&#x12f;" 
d="M130 460v70h260v-460h175v-70h-174q-80 -72 -80 -117q0 -39 46 -39q34 0 66 37l32 -28q-51 -64 -123 -64q-40 0 -68 17t-28 57q0 75 99 137h-210v70h184v390h-179zM303 637v93h94v-93h-94z" />
    <glyph glyph-name="Idotaccent" unicode="&#x130;" 
d="M115 625v75h420v-75h-168v-550h168v-75h-420v75h167v550h-167zM277 765v97h97v-97h-97z" />
    <glyph glyph-name="dotlessi" unicode="&#x131;" 
d="M130 460v70h260v-460h175v-70h-440v70h184v390h-179z" />
    <glyph glyph-name="Jcircumflex" unicode="&#x134;" 
d="M178 625v75h350v-472q0 -122 -53.5 -182.5t-151.5 -60.5q-92 0 -148 57.5t-71 151.5l81 21q16 -75 44.5 -113.5t89.5 -38.5q66 0 95.5 40t29.5 130v392h-266zM231 785l66 85h109l66 -85l-48 -38l-73 92l-73 -92z" />
    <glyph glyph-name="jcircumflex" unicode="&#x135;" 
d="M177 457v73h285v-553q0 -85 -48.5 -128.5t-120.5 -43.5q-54 0 -94 23.5t-57 46.5l52 58q45 -54 99 -54q87 0 87 98v480h-203zM235 620l66 85h109l66 -85l-48 -38l-73 92l-73 -92z" />
    <glyph glyph-name="Kcommaaccent" unicode="&#x136;" 
d="M112 0v700h85v-342h2l284 342h104l-256 -306l284 -394h-102l-238 331h-2l-76 -89v-242h-85zM286 -229v35q28 4 38.5 16t10.5 35h-50v89h102v-75q0 -48 -23.5 -72.5t-77.5 -27.5z" />
    <glyph glyph-name="kcommaaccent" unicode="&#x137;" 
d="M135 0v730h82v-443h2l223 243h109l-194 -210l218 -320h-99l-180 269h-2l-77 -85v-184h-82zM282 -229v35q28 4 38.5 16t10.5 35h-50v89h102v-75q0 -48 -23.5 -72.5t-77.5 -27.5z" />
    <glyph glyph-name="kgreenlandic" unicode="&#x138;" 
d="M145 0v530h82v-243l225 243h109l-194 -210l218 -320h-95l-184 269l-79 -85v-184h-82z" />
    <glyph glyph-name="Lacute" unicode="&#x139;" 
d="M166 0v700h86v-624h331v-76h-417zM178 765l79 121h100l-108 -121h-71z" />
    <glyph glyph-name="lacute" unicode="&#x13a;" 
d="M137 657v73h254v-657h181v-73h-440v73h177v584h-172zM314 770l79 121h100l-108 -121h-71z" />
    <glyph glyph-name="Lcommaaccent" unicode="&#x13b;" 
d="M166 0v700h86v-624h331v-76h-417zM325 -229v35q28 4 38.5 16t10.5 35h-50v89h102v-75q0 -48 -23.5 -72.5t-77.5 -27.5z" />
    <glyph glyph-name="lcommaaccent" unicode="&#x13c;" 
d="M137 657v73h254v-657h181v-73h-440v73h177v584h-172zM296 -229v35q28 4 38.5 16t10.5 35h-50v89h102v-75q0 -48 -23.5 -72.5t-77.5 -27.5z" />
    <glyph glyph-name="Lcaron" unicode="&#x13d;" 
d="M166 0v700h86v-624h331v-76h-417zM405 579l29 151h79l-52 -151h-56z" />
    <glyph glyph-name="lcaron" unicode="&#x13e;" 
d="M137 657v73h254v-657h181v-73h-440v73h177v584h-172zM472 579l29 151h79l-52 -151h-56z" />
    <glyph glyph-name="Ldot" unicode="&#x13f;" 
d="M166 0v700h86v-624h331v-76h-417zM374 322v118h118v-118h-118z" />
    <glyph glyph-name="ldot" unicode="&#x140;" 
d="M137 657v73h254v-657h181v-73h-440v73h177v584h-172zM467 322v118h118v-118h-118z" />
    <glyph glyph-name="Lslash" unicode="&#x141;" 
d="M166 0v328l-72 -72l-35 35l107 107v302h83v-229l111 111l34 -35l-145 -146v-325h301v-76h-384z" />
    <glyph glyph-name="lslash" unicode="&#x142;" 
d="M137 657v73h254v-203l70 70l34 -35l-104 -103v-386h181v-73h-440v73h177v316l-87 -86l-35 35l122 120v199h-172z" />
    <glyph glyph-name="Nacute" unicode="&#x143;" 
d="M98 0v700h87l279 -558h2v558h80v-700h-85l-281 558h-2v-558h-80zM306 765l79 121h100l-108 -121h-71z" />
    <glyph glyph-name="nacute" unicode="&#x144;" 
d="M116 0v530h78v-51h2q22 29 63 47.5t86 18.5q86 0 138 -53t52 -144v-348h-82v322q0 148 -120 148q-62 0 -98.5 -35t-36.5 -97v-338h-82zM301 595l78 121h100l-107 -121h-71z" />
    <glyph glyph-name="Ncommaaccent" unicode="&#x145;" 
d="M98 0v700h87l279 -558h2v558h80v-700h-85l-281 558h-2v-558h-80zM289 -229v35q28 4 38.5 16t10.5 35h-50v89h102v-75q0 -48 -23.5 -72.5t-77.5 -27.5z" />
    <glyph glyph-name="ncommaaccent" unicode="&#x146;" 
d="M116 0v530h78v-51h2q22 29 63 47.5t86 18.5q86 0 138 -53t52 -144v-348h-82v322q0 148 -120 148q-62 0 -98.5 -35t-36.5 -97v-338h-82zM286 -229v35q28 4 38.5 16t10.5 35h-50v89h102v-75q0 -48 -23.5 -72.5t-77.5 -27.5z" />
    <glyph glyph-name="Ncaron" unicode="&#x147;" 
d="M98 0v700h87l279 -558h2v558h80v-700h-85l-281 558h-2v-558h-80zM283 765l-66 85l47 38l74 -92l73 92l47 -38l-66 -85h-109z" />
    <glyph glyph-name="ncaron" unicode="&#x148;" 
d="M116 0v530h78v-51h2q22 29 63 47.5t86 18.5q86 0 138 -53t52 -144v-348h-82v322q0 148 -120 148q-62 0 -98.5 -35t-36.5 -97v-338h-82zM274 594l-66 85l47 38l74 -92l73 92l47 -38l-66 -85h-109z" />
    <glyph glyph-name="Eng" unicode="&#x14a;" 
d="M77 0v700h78l334 -543h2v543h82v-772q0 -67 -29.5 -97.5t-92.5 -30.5h-41v81h37q27 0 38.5 13t11.5 49v62l-335 538h-2v-543h-83z" />
    <glyph glyph-name="eng" unicode="&#x14b;" 
d="M117 0v530h80v-51h2q50 66 140 66q87 0 140 -57.5t53 -155.5v-402q0 -73 -28 -103t-83 -30h-37v77h22q23 0 34 11t11 45v392q0 70 -31.5 109t-92.5 39q-60 0 -94 -38t-34 -101v-331h-82z" />
    <glyph glyph-name="Omacron" unicode="&#x14c;" 
d="M325 63q78 0 126.5 72.5t48.5 216.5q0 140 -48 212t-127 72t-127 -70t-48 -210q0 -144 48 -218.5t127 -74.5zM325 -15q-53 0 -99 21t-84 63.5t-60 116t-22 170.5q0 171 78.5 265t186.5 94t186.5 -96t78.5 -267q0 -97 -22.5 -170t-60.5 -114.5t-84 -62t-98 -20.5zM186 765
v61h288v-61h-288z" />
    <glyph glyph-name="omacron" unicode="&#x14d;" 
d="M327 59q67 0 111 54.5t44 151.5q0 98 -43.5 152t-111.5 54q-70 0 -114.5 -53.5t-44.5 -152.5t44.5 -152.5t114.5 -53.5zM327 -15q-105 0 -174 74.5t-69 205.5q0 130 71 205t172 75q100 0 169.5 -75t69.5 -205q0 -131 -67.5 -205.5t-171.5 -74.5zM188 620v61h288v-61h-288
z" />
    <glyph glyph-name="Obreve" unicode="&#x14e;" 
d="M325 63q78 0 126.5 72.5t48.5 216.5q0 140 -48 212t-127 72t-127 -70t-48 -210q0 -144 48 -218.5t127 -74.5zM325 -15q-53 0 -99 21t-84 63.5t-60 116t-22 170.5q0 171 78.5 265t186.5 94t186.5 -96t78.5 -267q0 -97 -22.5 -170t-60.5 -114.5t-84 -62t-98 -20.5zM205 874
h44q11 -58 80 -58q36 0 56 16t23 42h46q0 -56 -35 -87.5t-90 -31.5q-56 0 -90 31.5t-34 87.5z" />
    <glyph glyph-name="obreve" unicode="&#x14f;" 
d="M327 59q67 0 111 54.5t44 151.5q0 98 -43.5 152t-111.5 54q-70 0 -114.5 -53.5t-44.5 -152.5t44.5 -152.5t114.5 -53.5zM327 -15q-105 0 -174 74.5t-69 205.5q0 130 71 205t172 75q100 0 169.5 -75t69.5 -205q0 -131 -67.5 -205.5t-171.5 -74.5zM208 704h44
q11 -58 80 -58q36 0 56 16t23 42h46q0 -56 -35 -87.5t-90 -31.5q-56 0 -90 31.5t-34 87.5z" />
    <glyph glyph-name="Ohungarumlaut" unicode="&#x150;" 
d="M325 63q78 0 126.5 72.5t48.5 216.5q0 140 -48 212t-127 72t-127 -70t-48 -210q0 -144 48 -218.5t127 -74.5zM325 -15q-53 0 -99 21t-84 63.5t-60 116t-22 170.5q0 171 78.5 265t186.5 94t186.5 -96t78.5 -267q0 -97 -22.5 -170t-60.5 -114.5t-84 -62t-98 -20.5zM227 765
l75 115h92l-104 -115h-63zM363 765l75 115h92l-104 -115h-63z" />
    <glyph glyph-name="ohungarumlaut" unicode="&#x151;" 
d="M327 59q67 0 111 54.5t44 151.5q0 98 -43.5 152t-111.5 54q-70 0 -114.5 -53.5t-44.5 -152.5t44.5 -152.5t114.5 -53.5zM327 -15q-105 0 -174 74.5t-69 205.5q0 130 71 205t172 75q100 0 169.5 -75t69.5 -205q0 -131 -67.5 -205.5t-171.5 -74.5zM232 599l75 115h92
l-104 -115h-63zM368 599l75 115h92l-104 -115h-63z" />
    <glyph glyph-name="OE" unicode="&#x152;" 
d="M353 0v47h-2q-28 -62 -95 -62q-72 0 -127 93t-55 278q0 170 54.5 264.5t127.5 94.5q35 0 60 -18t35 -44h2v47h243v-76h-156v-219h128v-73h-128v-256h156v-76h-243zM353 146v407q-8 35 -28.5 57.5t-50.5 22.5q-51 0 -81 -68.5t-30 -208.5q0 -155 31 -222.5t80 -67.5
q28 0 48.5 20.5t30.5 59.5z" />
    <glyph glyph-name="oe" unicode="&#x153;" 
d="M462 -15q-45 0 -79 31.5t-50 88.5h-2q-12 -55 -48.5 -87.5t-76.5 -32.5q-66 0 -110 74.5t-44 205.5t44.5 205.5t109.5 74.5q40 0 76.5 -32.5t48.5 -87.5h2q15 56 48 88t71 32q66 0 105.5 -74t39.5 -206v-24h-223q1 -71 27.5 -126.5t62.5 -55.5q41 0 62 106l66 -16
q-26 -164 -130 -164zM206 59q33 0 56.5 55t23.5 151t-23.5 151t-56.5 55q-32 0 -55 -54.5t-23 -151.5t23 -151.5t55 -54.5zM376 307h149q0 60 -21 112.5t-52 52.5q-36 0 -56 -54t-20 -111z" />
    <glyph glyph-name="Racute" unicode="&#x154;" 
d="M116 0v700h222q110 0 173 -53t63 -155q0 -84 -47.5 -135t-126.5 -65l156 -292h-93l-152 286h-110v-286h-85zM201 360h132q70 0 113 31.5t43 100.5q0 132 -158 132h-130v-264zM271 765l79 121h100l-108 -121h-71z" />
    <glyph glyph-name="racute" unicode="&#x155;" 
d="M164 0v530h78v-77h2q18 36 60 61t91 25q61 0 105 -32.5t65 -94.5l-80 -34q-23 78 -103 78q-59 0 -97.5 -44t-38.5 -117v-295h-82zM331 595l78 121h100l-107 -121h-71z" />
    <glyph glyph-name="Rcommaaccent" unicode="&#x156;" 
d="M116 0v700h222q110 0 173 -53t63 -155q0 -84 -47.5 -135t-126.5 -65l156 -292h-93l-152 286h-110v-286h-85zM201 360h132q70 0 113 31.5t43 100.5q0 132 -158 132h-130v-264zM274 -229v35q28 4 38.5 16t10.5 35h-50v89h102v-75q0 -48 -23.5 -72.5t-77.5 -27.5z" />
    <glyph glyph-name="rcommaaccent" unicode="&#x157;" 
d="M164 0v530h78v-77h2q18 36 60 61t91 25q61 0 105 -32.5t65 -94.5l-80 -34q-23 78 -103 78q-59 0 -97.5 -44t-38.5 -117v-295h-82zM156 -229v35q28 4 38.5 16t10.5 35h-50v89h102v-75q0 -48 -23.5 -72.5t-77.5 -27.5z" />
    <glyph glyph-name="Rcaron" unicode="&#x158;" 
d="M116 0v700h222q110 0 173 -53t63 -155q0 -84 -47.5 -135t-126.5 -65l156 -292h-93l-152 286h-110v-286h-85zM201 360h132q70 0 113 31.5t43 100.5q0 132 -158 132h-130v-264zM261 765l-66 85l47 38l74 -92l73 92l47 -38l-66 -85h-109z" />
    <glyph glyph-name="rcaron" unicode="&#x159;" 
d="M164 0v530h78v-77h2q18 36 60 61t91 25q61 0 105 -32.5t65 -94.5l-80 -34q-23 78 -103 78q-59 0 -97.5 -44t-38.5 -117v-295h-82zM311 594l-66 85l47 38l74 -92l73 92l47 -38l-66 -85h-109z" />
    <glyph glyph-name="Sacute" unicode="&#x15a;" 
d="M70 241l88 17q14 -102 54.5 -148.5t132.5 -46.5q71 0 107 35t36 86q0 55 -32 85.5t-144 71.5q-113 41 -161.5 82.5t-48.5 112.5q0 77 58.5 128t153.5 51q90 0 155.5 -49.5t77.5 -143.5l-83 -18q-24 132 -150 132q-61 0 -93.5 -28.5t-32.5 -71.5q0 -38 30 -64t132 -63
q130 -48 176.5 -92t46.5 -129q0 -86 -62 -144.5t-169 -58.5q-241 0 -272 256zM284 765l79 121h100l-108 -121h-71z" />
    <glyph glyph-name="sacute" unicode="&#x15b;" 
d="M101 180l78 15q18 -139 169 -139q139 0 139 84q0 40 -29 60t-140 48q-121 31 -160.5 65t-37.5 91q2 56 54.5 98.5t144.5 42.5q93 0 148 -41t74 -107l-73 -24q-35 102 -148 102q-58 0 -89 -21.5t-31 -47.5q0 -24 7 -35t43 -26.5t117 -36.5q67 -17 107.5 -34t59 -39.5
t23.5 -41.5t6 -53q3 -65 -49.5 -110t-164.5 -45q-116 0 -177 54.5t-71 140.5zM276 595l78 121h100l-107 -121h-71z" />
    <glyph glyph-name="Scircumflex" unicode="&#x15c;" 
d="M70 241l88 17q14 -102 54.5 -148.5t132.5 -46.5q71 0 107 35t36 86q0 55 -32 85.5t-144 71.5q-113 41 -161.5 82.5t-48.5 112.5q0 77 58.5 128t153.5 51q90 0 155.5 -49.5t77.5 -143.5l-83 -18q-24 132 -150 132q-61 0 -93.5 -28.5t-32.5 -71.5q0 -38 30 -64t132 -63
q130 -48 176.5 -92t46.5 -129q0 -86 -62 -144.5t-169 -58.5q-241 0 -272 256zM198 785l66 85h109l66 -85l-48 -38l-73 92l-73 -92z" />
    <glyph glyph-name="scircumflex" unicode="&#x15d;" 
d="M101 180l78 15q18 -139 169 -139q139 0 139 84q0 40 -29 60t-140 48q-121 31 -160.5 65t-37.5 91q2 56 54.5 98.5t144.5 42.5q93 0 148 -41t74 -107l-73 -24q-35 102 -148 102q-58 0 -89 -21.5t-31 -47.5q0 -24 7 -35t43 -26.5t117 -36.5q67 -17 107.5 -34t59 -39.5
t23.5 -41.5t6 -53q3 -65 -49.5 -110t-164.5 -45q-116 0 -177 54.5t-71 140.5zM205 620l66 85h109l66 -85l-48 -38l-73 92l-73 -92z" />
    <glyph glyph-name="Scedilla" unicode="&#x15e;" 
d="M248 -174l29 40q37 -29 75 -29q60 0 60 45q0 41 -48 41q-16 0 -33 -4.5t-25 -9.5l-9 -5l-29 16l39 67q-209 18 -237 254l88 17q14 -102 54.5 -148.5t132.5 -46.5q71 0 107 35t36 86q0 55 -32 85.5t-144 71.5q-113 41 -161.5 82.5t-48.5 112.5q0 77 58.5 128t153.5 51
q90 0 155.5 -49.5t77.5 -143.5l-83 -18q-24 132 -150 132q-61 0 -93.5 -28.5t-32.5 -71.5q0 -38 30 -64t132 -63q130 -48 176.5 -92t46.5 -129t-60 -143t-165 -60l-27 -43q21 14 58 14q35 0 60.5 -19.5t25.5 -55.5q0 -41 -29 -66.5t-87 -25.5q-55 0 -101 37z" />
    <glyph glyph-name="scedilla" unicode="&#x15f;" 
d="M246 -174l29 40q37 -29 75 -29q60 0 60 45q0 41 -48 41q-16 0 -33 -4.5t-25 -9.5l-9 -5l-29 16l39 67q-95 10 -145 63t-59 130l78 15q18 -139 169 -139q139 0 139 84q0 40 -29 60t-140 48q-121 31 -160.5 65t-37.5 91q2 56 54.5 98.5t144.5 42.5q93 0 148 -41t74 -107
l-73 -24q-35 102 -148 102q-58 0 -89 -21.5t-31 -47.5q0 -24 7 -35t43 -26.5t117 -36.5q67 -17 107.5 -34t59 -39.5t23.5 -41.5t6 -53q3 -65 -49.5 -110t-164.5 -45h-3l-27 -43q21 14 58 14q35 0 60.5 -19.5t25.5 -55.5q0 -41 -29 -66.5t-87 -25.5q-55 0 -101 37z" />
    <glyph glyph-name="Scaron" unicode="&#x160;" 
d="M70 241l88 17q14 -102 54.5 -148.5t132.5 -46.5q71 0 107 35t36 86q0 55 -32 85.5t-144 71.5q-113 41 -161.5 82.5t-48.5 112.5q0 77 58.5 128t153.5 51q90 0 155.5 -49.5t77.5 -143.5l-83 -18q-24 132 -150 132q-61 0 -93.5 -28.5t-32.5 -71.5q0 -38 30 -64t132 -63
q130 -48 176.5 -92t46.5 -129q0 -86 -62 -144.5t-169 -58.5q-241 0 -272 256zM261 765l-66 85l47 38l74 -92l73 92l47 -38l-66 -85h-109z" />
    <glyph glyph-name="scaron" unicode="&#x161;" 
d="M101 180l78 15q18 -139 169 -139q139 0 139 84q0 40 -29 60t-140 48q-121 31 -160.5 65t-37.5 91q2 56 54.5 98.5t144.5 42.5q93 0 148 -41t74 -107l-73 -24q-35 102 -148 102q-58 0 -89 -21.5t-31 -47.5q0 -24 7 -35t43 -26.5t117 -36.5q67 -17 107.5 -34t59 -39.5
t23.5 -41.5t6 -53q3 -65 -49.5 -110t-164.5 -45q-116 0 -177 54.5t-71 140.5zM271 594l-66 85l47 38l74 -92l73 92l47 -38l-66 -85h-109z" />
    <glyph glyph-name="Tcommaaccent" unicode="&#x162;" 
d="M283 0v624h-236v76h555v-76h-235v-624h-84zM275 -229v35q28 4 38.5 16t10.5 35h-50v89h102v-75q0 -48 -23.5 -72.5t-77.5 -27.5z" />
    <glyph glyph-name="tcommaaccent" unicode="&#x163;" 
d="M264 154v303h-169v73h170v130h80v-130h191v-73h-190v-293q0 -47 13 -66t52 -19h90v-79h-94q-75 0 -109 38.5t-34 115.5zM310 -229v35q28 4 38.5 16t10.5 35h-50v89h102v-75q0 -48 -23.5 -72.5t-77.5 -27.5z" />
    <glyph glyph-name="Tcaron" unicode="&#x164;" 
d="M283 0v624h-236v76h555v-76h-235v-624h-84zM271 765l-66 85l47 38l74 -92l73 92l47 -38l-66 -85h-109z" />
    <glyph glyph-name="tcaron" unicode="&#x165;" 
d="M264 154v303h-169v73h170v130h80v-130h191v-73h-190v-293q0 -47 13 -66t52 -19h90v-79h-94q-75 0 -109 38.5t-34 115.5zM429 579l29 151h79l-52 -151h-56z" />
    <glyph glyph-name="Tbar" unicode="&#x166;" 
d="M284 0v323h-137v73h137v228h-217v76h515v-76h-216v-228h137v-73h-137v-323h-82z" />
    <glyph glyph-name="tbar" unicode="&#x167;" 
d="M264 154v109h-162v73h162v121h-169v73h170v130h80v-130h191v-73h-190v-121h186v-73h-186v-99q0 -47 13 -66t52 -19h90v-79h-94q-75 0 -109 38.5t-34 115.5z" />
    <glyph glyph-name="Utilde" unicode="&#x168;" 
d="M74 228v472h85v-466q0 -171 165 -171q82 0 124.5 43.5t42.5 125.5v468h84v-472q0 -119 -66 -181t-185 -62q-118 0 -184 62t-66 181zM236 765h-44q17 93 89 93q27 0 62 -18.5t52 -18.5q28 0 36 32h44q-17 -93 -88 -93q-28 0 -63.5 18.5t-51.5 18.5q-28 0 -36 -32z" />
    <glyph glyph-name="utilde" unicode="&#x169;" 
d="M120 185v345h82v-333q0 -74 28.5 -105t94.5 -31q60 0 92 37t32 103v329h82v-530h-81v51h-2q-5 -7 -15 -18t-46.5 -29.5t-79.5 -18.5q-88 0 -137.5 50t-49.5 150zM234 602h-44q18 94 89 94q27 0 62 -19t52 -19q28 0 36 33h44q-18 -94 -88 -94q-28 0 -63.5 19t-51.5 19
q-28 0 -36 -33z" />
    <glyph glyph-name="Umacron" unicode="&#x16a;" 
d="M74 228v472h85v-466q0 -171 165 -171q82 0 124.5 43.5t42.5 125.5v468h84v-472q0 -119 -66 -181t-185 -62q-118 0 -184 62t-66 181zM187 765v61h288v-61h-288z" />
    <glyph glyph-name="umacron" unicode="&#x16b;" 
d="M120 185v345h82v-333q0 -74 28.5 -105t94.5 -31q60 0 92 37t32 103v329h82v-530h-81v51h-2q-5 -7 -15 -18t-46.5 -29.5t-79.5 -18.5q-88 0 -137.5 50t-49.5 150zM186 620v61h288v-61h-288z" />
    <glyph glyph-name="Ubreve" unicode="&#x16c;" 
d="M74 228v472h85v-466q0 -171 165 -171q82 0 124.5 43.5t42.5 125.5v468h84v-472q0 -119 -66 -181t-185 -62q-118 0 -184 62t-66 181zM207 874h44q11 -58 80 -58q36 0 56 16t23 42h46q0 -56 -35 -87.5t-90 -31.5q-56 0 -90 31.5t-34 87.5z" />
    <glyph glyph-name="ubreve" unicode="&#x16d;" 
d="M120 185v345h82v-333q0 -74 28.5 -105t94.5 -31q60 0 92 37t32 103v329h82v-530h-81v51h-2q-5 -7 -15 -18t-46.5 -29.5t-79.5 -18.5q-88 0 -137.5 50t-49.5 150zM207 704h44q11 -58 80 -58q36 0 56 16t23 42h46q0 -56 -35 -87.5t-90 -31.5q-56 0 -90 31.5t-34 87.5z" />
    <glyph glyph-name="Uring" unicode="&#x16e;" 
d="M74 228v472h85v-466q0 -171 165 -171q82 0 124.5 43.5t42.5 125.5v468h84v-472q0 -119 -66 -181t-185 -62q-118 0 -184 62t-66 181zM337 684q-43 0 -70.5 29.5t-27.5 72.5q0 42 28 72t70 30q43 0 70.5 -29.5t27.5 -72.5q0 -44 -27.5 -73t-70.5 -29zM337 729q20 0 34 15
t14 43t-14 42.5t-34 14.5t-33.5 -14.5t-13.5 -42.5t14 -43t33 -15z" />
    <glyph glyph-name="uring" unicode="&#x16f;" 
d="M120 185v345h82v-333q0 -74 28.5 -105t94.5 -31q60 0 92 37t32 103v329h82v-530h-81v51h-2q-5 -7 -15 -18t-46.5 -29.5t-79.5 -18.5q-88 0 -137.5 50t-49.5 150zM329 523q-43 0 -70.5 29t-27.5 73q0 42 28 72t70 30q43 0 70.5 -29.5t27.5 -72.5q0 -45 -27.5 -73.5
t-70.5 -28.5zM329 567q20 0 34 15.5t14 43.5q0 27 -14 41.5t-34 14.5t-33.5 -14t-13.5 -42t14 -43.5t33 -15.5z" />
    <glyph glyph-name="Uhungarumlaut" unicode="&#x170;" 
d="M74 228v472h85v-466q0 -171 165 -171q82 0 124.5 43.5t42.5 125.5v468h84v-472q0 -119 -66 -181t-185 -62q-118 0 -184 62t-66 181zM233 765l75 115h92l-104 -115h-63zM369 765l75 115h92l-104 -115h-63z" />
    <glyph glyph-name="uhungarumlaut" unicode="&#x171;" 
d="M120 185v345h82v-333q0 -74 28.5 -105t94.5 -31q60 0 92 37t32 103v329h82v-530h-81v51h-2q-5 -7 -15 -18t-46.5 -29.5t-79.5 -18.5q-88 0 -137.5 50t-49.5 150zM227 611l75 115h92l-104 -115h-63zM363 611l75 115h92l-104 -115h-63z" />
    <glyph glyph-name="Uogonek" unicode="&#x172;" 
d="M427 -119l32 -28q-51 -64 -123 -64q-40 0 -68 17t-28 57q0 66 76 122q-115 2 -178.5 63.5t-63.5 179.5v472h85v-466q0 -171 165 -171q82 0 124.5 43.5t42.5 125.5v468h84v-472q0 -103 -50 -163.5t-141 -74.5q-69 -65 -69 -107q0 -39 46 -39q34 0 66 37z" />
    <glyph glyph-name="uogonek" unicode="&#x173;" 
d="M563 -119l32 -28q-51 -64 -123 -64q-40 0 -68 17t-28 57q0 75 99 137h-25v51h-2q-5 -7 -15 -18t-46.5 -29.5t-79.5 -18.5q-88 0 -137.5 50t-49.5 150v345h82v-333q0 -74 28.5 -105t94.5 -31q60 0 92 37t32 103v329h82v-530q-80 -72 -80 -117q0 -39 46 -39q34 0 66 37z
" />
    <glyph glyph-name="Wcircumflex" unicode="&#x174;" 
d="M136 0l-79 700h85l55 -578h2l100 408h53l99 -408h2l55 578h85l-79 -700h-97l-91 370h-2l-90 -370h-98zM207 785l66 85h109l66 -85l-48 -38l-73 92l-73 -92z" />
    <glyph glyph-name="wcircumflex" unicode="&#x175;" 
d="M162 0l-87 529h81l55 -399h2l71 229h74l69 -229h2l65 399h80l-97 -529h-75l-81 262h-2l-81 -262h-76zM199 620l66 85h109l66 -85l-48 -38l-73 92l-73 -92z" />
    <glyph glyph-name="Ycircumflex" unicode="&#x176;" 
d="M283 0v295l-231 405h94l178 -325h2l178 325h94l-231 -405v-295h-84zM205 785l66 85h109l66 -85l-48 -38l-73 92l-73 -92z" />
    <glyph glyph-name="ycircumflex" unicode="&#x177;" 
d="M176 -225l100 265l-206 490h88l157 -385h2l141 385h86l-285 -755h-83zM219 620l66 85h109l66 -85l-48 -38l-73 92l-73 -92z" />
    <glyph glyph-name="Ydieresis" unicode="&#x178;" 
d="M283 0v295l-231 405h94l178 -325h2l178 325h94l-231 -405v-295h-84zM184 765v91h91v-91h-91zM376 765v91h91v-91h-91z" />
    <glyph glyph-name="Zacute" unicode="&#x179;" 
d="M77 0v68l392 554v2h-374v76h478v-68l-393 -553v-2h385v-77h-488zM278 765l79 121h100l-108 -121h-71z" />
    <glyph glyph-name="zacute" unicode="&#x17a;" 
d="M105 0v64l333 389v2h-314v75h422v-62l-330 -390v-2h331v-76h-442zM279 595l78 121h100l-107 -121h-71z" />
    <glyph glyph-name="Zdotaccent" unicode="&#x17b;" 
d="M77 0v68l392 554v2h-374v76h478v-68l-393 -553v-2h385v-77h-488zM267 765v97h97v-97h-97z" />
    <glyph glyph-name="zdotaccent" unicode="&#x17c;" 
d="M105 0v64l333 389v2h-314v75h422v-62l-330 -390v-2h331v-76h-442zM274 608v96h97v-96h-97z" />
    <glyph glyph-name="Zcaron" unicode="&#x17d;" 
d="M77 0v68l392 554v2h-374v76h478v-68l-393 -553v-2h385v-77h-488zM279 765l-66 85l47 38l74 -92l73 92l47 -38l-66 -85h-109z" />
    <glyph glyph-name="zcaron" unicode="&#x17e;" 
d="M105 0v64l333 389v2h-314v75h422v-62l-330 -390v-2h331v-76h-442zM276 594l-66 85l47 38l74 -92l73 92l47 -38l-66 -85h-109z" />
    <glyph glyph-name="longs" unicode="&#x17f;" 
d="M329 0v457h-161v73h162v56q0 63 30 88.5t85 25.5h126v-73h-111q-30 0 -40.5 -12t-10.5 -50l1 -565h-81z" />
    <glyph glyph-name="florin" unicode="&#x192;" 
d="M178 -173l99 572h-98l12 66h98l25 132q29 148 141 148q65 0 117 -57l-49 -57q-33 38 -62 38q-28 0 -44.5 -18t-25.5 -67l-22 -119h144l-11 -66h-144l-100 -572h-80z" />
    <glyph glyph-name="Aringacute" unicode="&#x1fa;" 
d="M513 0l-47 137h-287l-43 -137h-87l230 695q-51 27 -51 91q0 39 24.5 68t62.5 33l58 89h100l-93 -104q44 -29 44 -86q0 -67 -54 -93l230 -693h-87zM442 209l-117 380h-2l-121 -380h240zM326 729q20 0 34 15t14 43t-14 42.5t-34 14.5t-33.5 -14.5t-13.5 -42.5t14 -43
t33 -15z" />
    <glyph glyph-name="aringacute" unicode="&#x1fb;" 
d="M460 0v58h-2q-15 -26 -57 -49.5t-105 -23.5q-88 0 -134.5 43t-46.5 108q0 66 41.5 103.5t138.5 62.5q83 21 117.5 39t34.5 54q0 33 -30 55t-81 22q-106 0 -129 -105l-76 22q10 56 46.5 95.5t95.5 53.5q-44 28 -44 87q0 39 25 68t63 33l56 87h100l-91 -103q43 -29 43 -85
t-40 -85q67 -12 108 -55t41 -107v-378h-74zM314 239q-68 -19 -92.5 -41t-24.5 -57q0 -83 105 -83q72 0 111 32.5t39 79.5v132h-2q-14 -29 -136 -63zM327 567q20 0 34 15.5t14 43.5q0 27 -14 41.5t-34 14.5t-33.5 -14t-13.5 -42t14 -43.5t33 -15.5z" />
    <glyph glyph-name="AEacute" unicode="&#x1fc;" 
d="M35 0l263 700h301v-76h-166v-227h138v-73h-138v-248h166v-76h-244v149h-180l-55 -149h-85zM200 221h155v413h-2zM318 765l79 121h100l-108 -121h-71z" />
    <glyph glyph-name="aeacute" unicode="&#x1fd;" 
d="M169 302q57 24 79.5 44.5t22.5 46.5q0 33 -18 56.5t-48 23.5q-63 0 -75 -103l-67 14q5 70 45 115.5t96 45.5q43 0 77 -23t48 -69q44 92 122 92q71 0 112 -74t41 -206v-24h-250q1 -76 27.5 -129t74.5 -53q19 0 33.5 10.5t24.5 31t14.5 34.5t9.5 36l65 -24
q-15 -72 -52.5 -117t-92.5 -45q-94 0 -140 113q-39 -113 -146 -113q-58 0 -92 43t-34 109q0 114 123 165zM356 307h174q0 66 -19.5 115.5t-58.5 49.5q-33 0 -56 -29t-31.5 -64.5t-8.5 -71.5zM187 242q-66 -38 -66 -101q0 -37 16 -60t47 -23q38 0 65 33.5t27 78.5v135h-2
q-2 -11 -20.5 -24t-66.5 -39zM178 595l78 121h100l-107 -121h-71z" />
    <glyph glyph-name="Oslashacute" unicode="&#x1fe;" 
d="M325 -15q-89 0 -152 53l-30 -53l-41 23l37 66q-77 97 -77 282q0 171 77.5 265t185.5 94q82 0 148 -57l33 57l41 -24l-40 -69q81 -99 81 -270q0 -187 -76 -277t-187 -90zM325 63q78 0 126.5 72.5t48.5 216.5q0 118 -37 192l-247 -431q43 -50 109 -50zM150 356
q0 -125 37 -199l246 431q-43 48 -108 48q-79 0 -127 -70t-48 -210zM304 765l79 121h100l-108 -121h-71z" />
    <glyph glyph-name="oslashacute" unicode="&#x1ff;" 
d="M305 595l78 121h100l-107 -121h-71zM327 -15q-91 0 -152 54l-39 -50l-33 25l43 55q-60 74 -60 196q0 130 70 205t171 75q84 0 147 -54l39 50l33 -26l-43 -55q61 -75 61 -195q0 -132 -67 -206t-170 -74zM327 59q67 0 111.5 54.5t44.5 151.5q0 79 -30 131l-230 -296
q43 -41 104 -41zM167 265q0 -79 30 -131l230 296q-41 41 -100 41q-70 0 -115 -53.5t-45 -152.5z" />
    <glyph glyph-name="Scommaaccent" unicode="&#x218;" 
d="M70 241l88 17q14 -102 54.5 -148.5t132.5 -46.5q71 0 107 35t36 86q0 55 -32 85.5t-144 71.5q-113 41 -161.5 82.5t-48.5 112.5q0 77 58.5 128t153.5 51q90 0 155.5 -49.5t77.5 -143.5l-83 -18q-24 132 -150 132q-61 0 -93.5 -28.5t-32.5 -71.5q0 -38 30 -64t132 -63
q130 -48 176.5 -92t46.5 -129q0 -86 -62 -144.5t-169 -58.5q-241 0 -272 256zM301 -229v35q28 4 38.5 16t10.5 35h-50v89h102v-75q0 -48 -23.5 -72.5t-77.5 -27.5z" />
    <glyph glyph-name="scommaaccent" unicode="&#x219;" 
d="M101 180l78 15q18 -139 169 -139q139 0 139 84q0 40 -29 60t-140 48q-121 31 -160.5 65t-37.5 91q2 56 54.5 98.5t144.5 42.5q93 0 148 -41t74 -107l-73 -24q-35 102 -148 102q-58 0 -89 -21.5t-31 -47.5q0 -24 7 -35t43 -26.5t117 -36.5q67 -17 107.5 -34t59 -39.5
t23.5 -41.5t6 -53q3 -65 -49.5 -110t-164.5 -45q-116 0 -177 54.5t-71 140.5zM295 -229v35q28 4 38.5 16t10.5 35h-50v89h102v-75q0 -48 -23.5 -72.5t-77.5 -27.5z" />
    <glyph glyph-name="dotlessj" unicode="&#x237;" 
d="M177 457v73h285v-553q0 -85 -48.5 -128.5t-120.5 -43.5q-54 0 -94 23.5t-57 46.5l52 58q45 -54 99 -54q87 0 87 98v480h-203z" />
    <glyph glyph-name="circumflex" unicode="&#x2c6;" 
d="M204 620l66 85h109l66 -85l-48 -38l-73 92l-73 -92z" />
    <glyph glyph-name="caron" unicode="&#x2c7;" 
d="M270 594l-66 85l47 38l74 -92l73 92l47 -38l-66 -85h-109z" />
    <glyph glyph-name="breve" unicode="&#x2d8;" 
d="M200 704h44q11 -58 80 -58q36 0 56 16t23 42h46q0 -56 -35 -87.5t-90 -31.5q-56 0 -90 31.5t-34 87.5z" />
    <glyph glyph-name="dotaccent" unicode="&#x2d9;" 
d="M276 608v96h97v-96h-97z" />
    <glyph glyph-name="ring" unicode="&#x2da;" 
d="M325 523q-43 0 -70.5 29t-27.5 73q0 42 28 72t70 30q43 0 70.5 -29.5t27.5 -72.5q0 -45 -27.5 -73.5t-70.5 -28.5zM325 567q20 0 34 15.5t14 43.5q0 27 -14 41.5t-34 14.5t-33.5 -14t-13.5 -42t14 -43.5t33 -15.5z" />
    <glyph glyph-name="ogonek" unicode="&#x2db;" 
d="M402 -119l32 -28q-51 -64 -123 -64q-40 0 -68 17t-28 57q0 75 99 137h56q-80 -72 -80 -117q0 -39 46 -39q34 0 66 37z" />
    <glyph glyph-name="tilde" unicode="&#x2dc;" 
d="M227 602h-44q18 94 89 94q27 0 62 -19t52 -19q28 0 36 33h44q-18 -94 -88 -94q-28 0 -63.5 19t-51.5 19q-28 0 -36 -33z" />
    <glyph glyph-name="hungarumlaut" unicode="&#x2dd;" 
d="M173 595l75 115h92l-104 -115h-63zM309 595l75 115h92l-104 -115h-63z" />
    <glyph glyph-name="uni0312" unicode="&#x312;" 
d="M366 777v-32q-36 -5 -36 -45h41v-91h-93v78q0 83 88 90z" />
    <glyph glyph-name="pi" unicode="&#x3c0;" 
d="M170 0h-85l10.5 35.5t23 92.5t29 140t23 167t10.5 184h-108v81h504v-81h-79v-470q0 -91 13 -149h-81q-17 30 -17 143v476h-147q0 -137 -24 -292t-48 -241z" />
    <glyph glyph-name="Wgrave" unicode="&#x1e80;" 
d="M136 0l-79 700h85l55 -578h2l100 408h53l99 -408h2l55 578h85l-79 -700h-97l-91 370h-2l-90 -370h-98zM290 765l-108 121h101l78 -121h-71z" />
    <glyph glyph-name="wgrave" unicode="&#x1e81;" 
d="M162 0l-87 529h81l55 -399h2l71 229h74l69 -229h2l65 399h80l-97 -529h-75l-81 262h-2l-81 -262h-76zM280 595l-108 121h101l78 -121h-71z" />
    <glyph glyph-name="Wacute" unicode="&#x1e82;" 
d="M136 0l-79 700h85l55 -578h2l100 408h53l99 -408h2l55 578h85l-79 -700h-97l-91 370h-2l-90 -370h-98zM286 765l79 121h100l-108 -121h-71z" />
    <glyph glyph-name="wacute" unicode="&#x1e83;" 
d="M162 0l-87 529h81l55 -399h2l71 229h74l69 -229h2l65 399h80l-97 -529h-75l-81 262h-2l-81 -262h-76zM288 595l78 121h100l-107 -121h-71z" />
    <glyph glyph-name="Wdieresis" unicode="&#x1e84;" 
d="M136 0l-79 700h85l55 -578h2l100 408h53l99 -408h2l55 578h85l-79 -700h-97l-91 370h-2l-90 -370h-98zM183 765v91h91v-91h-91zM375 765v91h91v-91h-91z" />
    <glyph glyph-name="wdieresis" unicode="&#x1e85;" 
d="M162 0l-87 529h81l55 -399h2l71 229h74l69 -229h2l65 399h80l-97 -529h-75l-81 262h-2l-81 -262h-76zM184 611v91h91v-91h-91zM376 611v91h91v-91h-91z" />
    <glyph glyph-name="Ygrave" unicode="&#x1ef2;" 
d="M283 0v295l-231 405h94l178 -325h2l178 325h94l-231 -405v-295h-84zM291 765l-108 121h101l78 -121h-71z" />
    <glyph glyph-name="ygrave" unicode="&#x1ef3;" 
d="M176 -225l100 265l-206 490h88l157 -385h2l141 385h86l-285 -755h-83zM302 595l-108 121h101l78 -121h-71z" />
    <glyph glyph-name="endash" unicode="&#x2013;" 
d="M75 305v73h499v-73h-499z" />
    <glyph glyph-name="emdash" unicode="&#x2014;" 
d="M40 305v73h570v-73h-570z" />
    <glyph glyph-name="quoteleft" unicode="&#x2018;" 
d="M334 524v-45q-118 8 -118 121v103h118v-118h-48q0 -52 48 -61z" />
    <glyph glyph-name="quoteright" unicode="&#x2019;" 
d="M266 479v45q48 9 48 61h-48v118h118v-103q0 -113 -118 -121z" />
    <glyph glyph-name="quotesinglbase" unicode="&#x201a;" 
d="M266 -106v45q48 9 48 61h-48v118h118v-103q0 -113 -118 -121z" />
    <glyph glyph-name="quotedblleft" unicode="&#x201c;" 
d="M243 524v-45q-118 8 -118 121v103h118v-118h-48q0 -52 48 -61zM424 524v-45q-118 8 -118 121v103h118v-118h-48q0 -52 48 -61z" />
    <glyph glyph-name="quotedblright" unicode="&#x201d;" 
d="M175 479v45q48 9 48 61h-48v118h118v-103q0 -113 -118 -121zM356 479v45q48 9 48 61h-48v118h118v-103q0 -113 -118 -121z" />
    <glyph glyph-name="quotedblbase" unicode="&#x201e;" 
d="M175 -106v45q48 9 48 61h-48v118h118v-103q0 -113 -118 -121zM356 -106v45q48 9 48 61h-48v118h118v-103q0 -113 -118 -121z" />
    <glyph glyph-name="dagger" unicode="&#x2020;" 
d="M286 -225v653h-219v73h219v229h78v-229h219v-73h-219v-653h-78z" />
    <glyph glyph-name="daggerdbl" unicode="&#x2021;" 
d="M286 -225v225h-219v69h219v363h-219v69h219v229h78v-229h219v-69h-219v-363h219v-69h-219v-225h-78z" />
    <glyph glyph-name="bullet" unicode="&#x2022;" 
d="M325 266q-41 0 -66 26t-25 66q0 41 25 67t66 26t66 -26t25 -67q0 -40 -25 -66t-66 -26z" />
    <glyph glyph-name="ellipsis" unicode="&#x2026;" 
d="M66 0v118h118v-118h-118zM269 0v118h118v-118h-118zM466 0v118h118v-118h-118z" />
    <glyph glyph-name="perthousand" unicode="&#x2030;" 
d="M480 -160q-65 0 -102 60q-36 -60 -100 -60q-63 0 -99 55.5t-36 153.5q0 93 40.5 144.5t94.5 51.5q61 0 101 -61q39 61 101 61q54 0 95 -51.5t41 -144.5q0 -95 -36.5 -152t-99.5 -57zM169 459q-63 0 -99 55.5t-36 153.5q0 93 40.5 144.5t94.5 51.5t95 -51.5t41 -144.5
q0 -95 -36.5 -152t-99.5 -57zM480 -97q32 0 49.5 39t17.5 106q0 133 -67 133q-66 0 -66 -133q0 -67 17 -106t49 -39zM169 522q32 0 49.5 39t17.5 106q0 133 -67 133q-66 0 -66 -133q0 -67 17 -106t49 -39zM278 -97q31 0 48 36.5t19 99.5v20q-3 122 -67 122q-66 0 -66 -133
q0 -67 17 -106t49 -39zM72 222l-34 60l372 216l34 -60z" />
    <glyph glyph-name="guilsinglleft" unicode="&#x2039;" 
d="M339 95l-110 186l109 186h80l-109 -186l111 -186h-81z" />
    <glyph glyph-name="guilsinglright" unicode="&#x203a;" 
d="M370 281l-110 -186h-81l111 186l-109 186h80z" />
    <glyph glyph-name="fraction" unicode="&#x2044;" 
d="M110 320v60h430v-60h-430z" />
    <glyph glyph-name="zerosuperior" unicode="&#x2070;" 
d="M325 468q-73 0 -116 56t-43 168q0 104 43.5 158.5t115.5 54.5t115.5 -54.5t43.5 -158.5q0 -112 -43 -168t-116 -56zM325 530q90 0 90 163q0 6 -0.5 16t-0.5 15l-169 -123q19 -71 80 -71zM235 693q0 -24 1 -35l167 122q-21 63 -78 63q-90 0 -90 -150z" />
    <glyph glyph-name="foursuperior" unicode="&#x2074;" 
d="M170 572v61l162 267h95v-267h52v-61h-52v-99h-65v99h-192zM231 633h131v211h-2z" />
    <glyph glyph-name="fivesuperior" unicode="&#x2075;" 
d="M170 582l61 27q22 -80 96 -80q40 0 64.5 23.5t24.5 66.5t-24.5 66t-62.5 23q-57 0 -91 -48l-54 25l38 215h215v-61h-165l-21 -116h2q30 37 92 37q56 0 95.5 -40t39.5 -102q0 -69 -43.5 -109.5t-109.5 -40.5q-61 0 -100.5 31t-56.5 83z" />
    <glyph glyph-name="sixsuperior" unicode="&#x2076;" 
d="M338 530q40 0 61.5 23.5t21.5 62.5t-22.5 62.5t-63.5 23.5q-39 0 -63 -24.5t-24 -57.5q0 -41 25 -65.5t65 -24.5zM233 697h2q9 20 38.5 39t76.5 19q53 0 93.5 -38t40.5 -103q0 -68 -42 -107t-104 -39q-75 0 -123.5 53.5t-48.5 159.5q0 96 46.5 160t122.5 64
q57 0 90.5 -30.5t42.5 -76.5l-60 -17q-18 65 -76 65q-43 0 -71 -40.5t-28 -108.5z" />
    <glyph glyph-name="sevensuperior" unicode="&#x2077;" 
d="M203 473l200 365v2h-220v60h282v-73l-188 -354h-74z" />
    <glyph glyph-name="eightsuperior" unicode="&#x2078;" 
d="M258 788q0 -25 16.5 -42t49.5 -17t49.5 17t16.5 42t-17 43t-49 18t-49 -18t-17 -43zM251 703v2q-56 24 -56 89q0 46 36 78.5t93 32.5t94 -32.5t37 -78.5q0 -63 -56 -89v-2q32 -11 53 -40t21 -67q0 -60 -41 -94t-108 -34t-107.5 34t-40.5 94q0 38 20.5 67t54.5 40z
M240 602q0 -32 21 -52t63 -20t63 20t21 52q0 34 -22 55t-62 21t-62 -21t-22 -55z" />
    <glyph glyph-name="ninesuperior" unicode="&#x2079;" 
d="M186 572l60 21q16 -65 83 -65q89 0 88 146h-2q-4 -18 -31.5 -37t-73.5 -19q-56 0 -97.5 39t-41.5 103q0 66 42 105.5t103 39.5q71 0 117 -55t46 -166q0 -110 -41 -163t-112 -53q-112 0 -140 104zM319 675q38 0 61 21.5t23 59.5t-24 63.5t-63 25.5q-36 0 -59 -23t-23 -62
t23 -62t62 -23z" />
    <glyph glyph-name="plussuperior" unicode="&#x207a;" 
d="M293 515v155h-136v59h136v138h63v-138h137v-59h-137v-155h-63z" />
    <glyph glyph-name="minussuperior" unicode="&#x207b;" 
d="M172 670v59h306v-59h-306z" />
    <glyph glyph-name="zeroinferior" unicode="&#x2080;" 
d="M325 -205q-73 0 -116 56t-43 168q0 104 43.5 158.5t115.5 54.5t115.5 -54.5t43.5 -158.5q0 -112 -43 -168t-116 -56zM325 -143q90 0 90 163q0 6 -0.5 16t-0.5 15l-169 -123q19 -71 80 -71zM235 20q0 -24 1 -35l167 122q-21 63 -78 63q-90 0 -90 -150z" />
    <glyph glyph-name="oneinferior" unicode="&#x2081;" 
d="M181 -200v62h116v288l-92 -57v73l98 61h59v-365h107v-62h-288z" />
    <glyph glyph-name="twoinferior" unicode="&#x2082;" 
d="M183 -200v52q0 53 26 90q19 25 94 64l17.5 10t17 9t14.5 8t13.5 9t11.5 8.5t10.5 9.5t7 9.5t6 11t3 12.5t1.5 14q0 26 -19.5 46t-55.5 20q-79 0 -87 -92l-64 8q4 68 44 105.5t107 37.5q62 0 100 -35.5t38 -93.5q0 -50 -30 -79.5t-84 -56.5q-77 -41 -88 -58
q-10 -13 -10 -43h215v-66h-288z" />
    <glyph glyph-name="threeinferior" unicode="&#x2083;" 
d="M172 -59l65 14q6 -51 28.5 -75.5t64.5 -24.5q41 0 62.5 19.5t21.5 51.5q0 35 -23 54t-65 19h-26v53h20q29 0 52.5 13.5t23.5 43.5q0 29 -18 46t-51 17q-62 0 -72 -71l-62 12q5 55 42 87t94 32q56 0 93 -31t37 -83q0 -35 -18.5 -56.5t-39.5 -28.5v-2q29 -9 52.5 -36
t23.5 -73q0 -55 -39.5 -91t-107.5 -36q-65 0 -107 36.5t-51 109.5z" />
    <glyph glyph-name="fourinferior" unicode="&#x2084;" 
d="M170 -101v61l162 267h95v-267h52v-61h-52v-99h-65v99h-192zM231 -40h131v211h-2z" />
    <glyph glyph-name="fiveinferior" unicode="&#x2085;" 
d="M170 -91l61 27q22 -80 96 -80q40 0 64.5 23.5t24.5 66.5t-24.5 66t-62.5 23q-57 0 -91 -48l-54 25l38 215h215v-61h-165l-21 -116h2q30 37 92 37q56 0 95.5 -40t39.5 -102q0 -69 -43.5 -109.5t-109.5 -40.5q-61 0 -100.5 31t-56.5 83z" />
    <glyph glyph-name="sixinferior" unicode="&#x2086;" 
d="M338 -144q40 0 61.5 23.5t21.5 62.5t-22.5 62.5t-63.5 23.5q-39 0 -63 -24.5t-24 -57.5q0 -41 25 -65.5t65 -24.5zM233 23h2q9 20 38.5 39t76.5 19q53 0 93.5 -38t40.5 -103q0 -68 -42 -107t-104 -39q-75 0 -123.5 53.5t-48.5 159.5q0 96 46.5 160t122.5 64
q57 0 90.5 -30.5t42.5 -76.5l-60 -17q-18 65 -76 65q-43 0 -71 -40.5t-28 -108.5z" />
    <glyph glyph-name="seveninferior" unicode="&#x2087;" 
d="M203 -200l200 365v2h-220v60h282v-73l-188 -354h-74z" />
    <glyph glyph-name="eightinferior" unicode="&#x2088;" 
d="M258 115q0 -25 16.5 -42t49.5 -17t49.5 17t16.5 42t-17 43t-49 18t-49 -18t-17 -43zM251 30v2q-56 24 -56 89q0 46 36 78.5t93 32.5t94 -32.5t37 -78.5q0 -63 -56 -89v-2q32 -11 53 -40t21 -67q0 -60 -41 -94t-108 -34t-107.5 34t-40.5 94q0 38 20.5 67t54.5 40zM240 -71
q0 -32 21 -52t63 -20t63 20t21 52q0 34 -22 55t-62 21t-62 -21t-22 -55z" />
    <glyph glyph-name="nineinferior" unicode="&#x2089;" 
d="M186 -101l60 21q16 -65 83 -65q89 0 88 146h-2q-4 -17 -31.5 -36.5t-73.5 -19.5q-56 0 -97.5 39t-41.5 103q0 66 42 105.5t103 39.5q71 0 117 -55t46 -166q0 -110 -41 -163t-112 -53q-112 0 -140 104zM319 2q38 0 61 21.5t23 59.5t-24 63.5t-63 25.5q-36 0 -59 -23
t-23 -62t23 -62t62 -23z" />
    <glyph glyph-name="Euro" unicode="&#x20ac;" 
d="M196 389v-33q0 -20 2 -54h217v-67h-209q15 -86 54 -129t95 -43q64 0 98 55t40 142l87 -11q-8 -121 -68.5 -192.5t-156.5 -71.5q-88 0 -152.5 61.5t-85.5 188.5h-47v67h40q-2 34 -2 54q0 22 1 33h-39v67h45q20 125 86 192t154 67q91 0 151.5 -68t71.5 -176l-84 -15
q-10 80 -44 130t-95 50q-57 0 -97 -45t-55 -135h212v-67h-219z" />
    <glyph glyph-name="trademark" unicode="&#x2122;" 
d="M145 361v286h-74v53h198v-53h-68v-286h-56zM298 361v339h77l54 -132h2l53 132h78v-339h-56v263h-2l-54 -138h-40l-54 137h-2v-262h-56z" />
    <glyph glyph-name="Omega" unicode="&#x2126;" 
d="M59 0v70h122q-54 37 -89.5 116.5t-35.5 174.5q0 172 76.5 263t192.5 91t192.5 -91t76.5 -263q0 -96 -35.5 -175t-90.5 -116h123v-70h-231v67q63 13 105 87t42 193q0 145 -51 217.5t-131 72.5q-79 0 -130.5 -73t-51.5 -217q0 -119 39.5 -193t97.5 -87v-67h-221z" />
    <glyph glyph-name="onethird" unicode="&#x2153;" 
d="M173 -47l65 14q6 -51 28.5 -75.5t64.5 -24.5q41 0 62.5 19.5t21.5 51.5q0 35 -23 54t-65 19h-26v53h20q29 0 52.5 13.5t23.5 43.5q0 29 -18 46t-51 17q-62 0 -72 -71l-62 12q5 55 42 87t94 32q56 0 93 -31t37 -83q0 -35 -18.5 -56.5t-39.5 -28.5v-2q29 -9 52.5 -36
t23.5 -73q0 -55 -39.5 -91t-107.5 -36q-65 0 -107 36.5t-51 109.5zM110 319v60h430v-60h-430zM181 463v62h116v288l-92 -57v73l98 61h59v-365h107v-62h-288z" />
    <glyph glyph-name="twothirds" unicode="&#x2154;" 
d="M110 320v60h430v-60h-430zM183 463v52q0 53 26 90q19 25 94 64l17.5 10t17 9t14.5 8t13.5 9t11.5 8.5t10.5 9.5t7 9.5t6 11t3 12.5t1.5 14q0 26 -19.5 46t-55.5 20q-79 0 -87 -92l-64 8q4 68 44 105.5t107 37.5q62 0 100 -35.5t38 -93.5q0 -50 -30 -79.5t-84 -56.5
q-77 -41 -88 -58q-10 -13 -10 -43h215v-66h-288zM173 -47l65 14q6 -51 28.5 -75.5t64.5 -24.5q41 0 62.5 19.5t21.5 51.5q0 35 -23 54t-65 19h-26v53h20q29 0 52.5 13.5t23.5 43.5q0 29 -18 46t-51 17q-62 0 -72 -71l-62 12q5 55 42 87t94 32q56 0 93 -31t37 -83
q0 -35 -18.5 -56.5t-39.5 -28.5v-2q29 -9 52.5 -36t23.5 -73q0 -55 -39.5 -91t-107.5 -36q-65 0 -107 36.5t-51 109.5z" />
    <glyph glyph-name="onefifth" unicode="&#x2155;" 
d="M170 -79l61 27q22 -80 96 -80q40 0 64.5 23.5t24.5 66.5t-24.5 66t-62.5 23q-57 0 -91 -48l-54 25l38 215h215v-61h-165l-21 -116h2q30 37 92 37q56 0 95.5 -40t39.5 -102q0 -69 -43.5 -109.5t-109.5 -40.5q-61 0 -100.5 31t-56.5 83zM110 319v60h430v-60h-430zM181 463
v62h116v288l-92 -57v73l98 61h59v-365h107v-62h-288z" />
    <glyph glyph-name="twofifths" unicode="&#x2156;" 
d="M170 -79l61 27q22 -80 96 -80q40 0 64.5 23.5t24.5 66.5t-24.5 66t-62.5 23q-57 0 -91 -48l-54 25l38 215h215v-61h-165l-21 -116h2q30 37 92 37q56 0 95.5 -40t39.5 -102q0 -69 -43.5 -109.5t-109.5 -40.5q-61 0 -100.5 31t-56.5 83zM110 320v60h430v-60h-430zM183 463
v52q0 53 26 90q19 25 94 64l17.5 10t17 9t14.5 8t13.5 9t11.5 8.5t10.5 9.5t7 9.5t6 11t3 12.5t1.5 14q0 26 -19.5 46t-55.5 20q-79 0 -87 -92l-64 8q4 68 44 105.5t107 37.5q62 0 100 -35.5t38 -93.5q0 -50 -30 -79.5t-84 -56.5q-77 -41 -88 -58q-10 -13 -10 -43h215v-66
h-288z" />
    <glyph glyph-name="threefifths" unicode="&#x2157;" 
d="M170 -79l61 27q22 -80 96 -80q40 0 64.5 23.5t24.5 66.5t-24.5 66t-62.5 23q-57 0 -91 -48l-54 25l38 215h215v-61h-165l-21 -116h2q30 37 92 37q56 0 95.5 -40t39.5 -102q0 -69 -43.5 -109.5t-109.5 -40.5q-61 0 -100.5 31t-56.5 83zM110 320v60h430v-60h-430zM173 604
l65 14q6 -51 28.5 -75.5t64.5 -24.5q41 0 62.5 19.5t21.5 51.5q0 35 -23 54t-65 19h-26v53h20q29 0 52.5 13.5t23.5 43.5q0 29 -18 46t-51 17q-62 0 -72 -71l-62 12q5 55 42 87t94 32q56 0 93 -31t37 -83q0 -35 -18.5 -56.5t-39.5 -28.5v-2q29 -9 52.5 -36t23.5 -73
q0 -55 -39.5 -91t-107.5 -36q-65 0 -107 36.5t-51 109.5z" />
    <glyph glyph-name="fourfifths" unicode="&#x2158;" 
d="M110 320v60h430v-60h-430zM171 562v61l162 267h95v-267h52v-61h-52v-99h-65v99h-192zM232 623h131v211h-2zM170 -80l61 27q22 -80 96 -80q40 0 64.5 23.5t24.5 66.5t-24.5 66t-62.5 23q-57 0 -91 -48l-54 25l38 215h215v-61h-165l-21 -116h2q30 37 92 37q56 0 95.5 -40
t39.5 -102q0 -69 -43.5 -109.5t-109.5 -40.5q-61 0 -100.5 31t-56.5 83z" />
    <glyph glyph-name="onesixth" unicode="&#x2159;" 
d="M338 -131q40 0 61.5 23.5t21.5 62.5t-22.5 62.5t-63.5 23.5q-39 0 -63 -24.5t-24 -57.5q0 -41 25 -65.5t65 -24.5zM233 36h2q9 20 38.5 39t76.5 19q53 0 93.5 -38t40.5 -103q0 -68 -42 -107t-104 -39q-75 0 -123.5 53.5t-48.5 159.5q0 96 46.5 160t122.5 64
q57 0 90.5 -30.5t42.5 -76.5l-60 -17q-18 65 -76 65q-43 0 -71 -40.5t-28 -108.5zM110 319v60h430v-60h-430zM181 463v62h116v288l-92 -57v73l98 61h59v-365h107v-62h-288z" />
    <glyph glyph-name="fivesixths" unicode="&#x215a;" 
d="M110 320v60h430v-60h-430zM170 572l61 27q22 -80 96 -80q40 0 64.5 23.5t24.5 66.5t-24.5 66t-62.5 23q-57 0 -91 -48l-54 25l38 215h215v-61h-165l-21 -116h2q30 37 92 37q56 0 95.5 -40t39.5 -102q0 -69 -43.5 -109.5t-109.5 -40.5q-61 0 -100.5 31t-56.5 83zM338 -131
q40 0 61.5 23.5t21.5 62.5t-22.5 62.5t-63.5 23.5q-39 0 -63 -24.5t-24 -57.5q0 -41 25 -65.5t65 -24.5zM233 36h2q9 20 38.5 39t76.5 19q53 0 93.5 -38t40.5 -103q0 -68 -42 -107t-104 -39q-75 0 -123.5 53.5t-48.5 159.5q0 96 46.5 160t122.5 64q57 0 90.5 -30.5
t42.5 -76.5l-60 -17q-18 65 -76 65q-43 0 -71 -40.5t-28 -108.5z" />
    <glyph glyph-name="oneeighth" unicode="&#x215b;" 
d="M259 127q0 -25 16.5 -42t49.5 -17t49.5 17t16.5 42t-17 43t-49 18t-49 -18t-17 -43zM252 42v2q-56 24 -56 89q0 46 36 78.5t93 32.5t94 -32.5t37 -78.5q0 -63 -56 -89v-2q32 -11 53 -40t21 -67q0 -60 -41 -94t-108 -34t-107.5 34t-40.5 94q0 38 20.5 67t54.5 40zM241 -59
q0 -32 21 -52t63 -20t63 20t21 52q0 34 -22 55t-62 21t-62 -21t-22 -55zM110 319v60h430v-60h-430zM181 463v62h116v288l-92 -57v73l98 61h59v-365h107v-62h-288z" />
    <glyph glyph-name="threeeighths" unicode="&#x215c;" 
d="M259 127q0 -25 16.5 -42t49.5 -17t49.5 17t16.5 42t-17 43t-49 18t-49 -18t-17 -43zM252 42v2q-56 24 -56 89q0 46 36 78.5t93 32.5t94 -32.5t37 -78.5q0 -63 -56 -89v-2q32 -11 53 -40t21 -67q0 -60 -41 -94t-108 -34t-107.5 34t-40.5 94q0 38 20.5 67t54.5 40zM241 -59
q0 -32 21 -52t63 -20t63 20t21 52q0 34 -22 55t-62 21t-62 -21t-22 -55zM110 320v60h430v-60h-430zM173 604l65 14q6 -51 28.5 -75.5t64.5 -24.5q41 0 62.5 19.5t21.5 51.5q0 35 -23 54t-65 19h-26v53h20q29 0 52.5 13.5t23.5 43.5q0 29 -18 46t-51 17q-62 0 -72 -71l-62 12
q5 55 42 87t94 32q56 0 93 -31t37 -83q0 -35 -18.5 -56.5t-39.5 -28.5v-2q29 -9 52.5 -36t23.5 -73q0 -55 -39.5 -91t-107.5 -36q-65 0 -107 36.5t-51 109.5z" />
    <glyph glyph-name="fiveeighths" unicode="&#x215d;" 
d="M110 320v60h430v-60h-430zM170 572l61 27q22 -80 96 -80q40 0 64.5 23.5t24.5 66.5t-24.5 66t-62.5 23q-57 0 -91 -48l-54 25l38 215h215v-61h-165l-21 -116h2q30 37 92 37q56 0 95.5 -40t39.5 -102q0 -69 -43.5 -109.5t-109.5 -40.5q-61 0 -100.5 31t-56.5 83zM259 127
q0 -25 16.5 -42t49.5 -17t49.5 17t16.5 42t-17 43t-49 18t-49 -18t-17 -43zM252 42v2q-56 24 -56 89q0 46 36 78.5t93 32.5t94 -32.5t37 -78.5q0 -63 -56 -89v-2q32 -11 53 -40t21 -67q0 -60 -41 -94t-108 -34t-107.5 34t-40.5 94q0 38 20.5 67t54.5 40zM241 -59
q0 -32 21 -52t63 -20t63 20t21 52q0 34 -22 55t-62 21t-62 -21t-22 -55z" />
    <glyph glyph-name="seveneighths" unicode="&#x215e;" 
d="M110 320v60h430v-60h-430zM226 463l200 365v2h-220v60h282v-73l-188 -354h-74zM259 127q0 -25 16.5 -42t49.5 -17t49.5 17t16.5 42t-17 43t-49 18t-49 -18t-17 -43zM252 42v2q-56 24 -56 89q0 46 36 78.5t93 32.5t94 -32.5t37 -78.5q0 -63 -56 -89v-2q32 -11 53 -40
t21 -67q0 -60 -41 -94t-108 -34t-107.5 34t-40.5 94q0 38 20.5 67t54.5 40zM241 -59q0 -32 21 -52t63 -20t63 20t21 52q0 34 -22 55t-62 21t-62 -21t-22 -55z" />
    <glyph glyph-name="leftwardsarrow" unicode="&#x2190;" 
d="M576 385v-77h-481l127 -207l-72 -44l-175 289l174 286l72 -43l-126 -204h481z" />
    <glyph glyph-name="upwardsarrow" unicode="&#x2191;" 
d="M363 529l1 -487h-78l1 487l-205 -129l-42 70l285 172l285 -172l-42 -70z" />
    <glyph glyph-name="rightwordsarrow" unicode="&#x2192;" 
d="M25 308v77h481l-126 204l72 43l174 -286l-175 -289l-72 44l127 207h-481z" />
    <glyph glyph-name="downwardsarrow" unicode="&#x2193;" 
d="M364 644l-1 -487l205 129l42 -70l-285 -172l-285 172l42 70l205 -129l-1 487h78z" />
    <glyph glyph-name="leftrightarrow" unicode="&#x2194;" 
d="M518 308h-386l128 -203l-69 -43l-172 284l170 280l70 -43l-126 -199h384l-125 199l70 43l169 -280l-172 -284l-69 43z" />
    <glyph glyph-name="updownarrow" unicode="&#x2195;" 
d="M38 210l42 69l204 -129v387l-204 -129l-42 70l287 172l286 -172l-42 -70l-204 129v-387l204 129l42 -69l-286 -173z" />
    <glyph glyph-name="northwestarrow" unicode="&#x2196;" 
d="M589 141l-52 -53l-347 347l-55 -237l-74 17l79 324l320 78l17 -75l-234 -54z" />
    <glyph glyph-name="northeastarrow" unicode="&#x2197;" 
d="M63 88l-52 53l346 347l-234 54l17 75l320 -78l79 -324l-74 -17l-55 237z" />
    <glyph glyph-name="southeastarrow" unicode="&#x2198;" 
d="M11 547l52 53l347 -347l55 237l74 -17l-79 -324l-320 -78l-17 75l234 54z" />
    <glyph glyph-name="southwestarrow" unicode="&#x2199;" 
d="M537 600l52 -53l-346 -347l234 -54l-17 -75l-320 78l-79 324l74 17l55 -237z" />
    <glyph glyph-name="downwardsarrowwithtiprightwards" unicode="&#x21b3;" 
d="M24 307v393h83v-314h399l-125 203l72 43l173 -286l-176 -289l-72 43l127 207h-481z" />
    <glyph glyph-name="downwardsarrowwithtipleftwards" unicode="&#x21b5;" 
d="M576 700v-393h-481l127 -207l-72 -43l-176 289l173 286l72 -43l-125 -203h399v314h83z" />
    <glyph glyph-name="partialdiff" unicode="&#x2202;" 
d="M222 669l-38 55l10 7l18.5 13t24.5 14.5t31 14.5t35 10.5t39 4.5q115 0 170.5 -105.5t55.5 -283.5q0 -122 -24.5 -212t-83 -146t-147.5 -56q-107 0 -169 65t-63 180q0 53 12.5 99.5t38 85.5t70 62t102.5 23q76 0 190 -50q-2 121 -41 195t-112 74q-16 0 -32.5 -4
t-31 -11.5t-24.5 -13.5t-21 -14zM313 59q163 0 176 318q-101 52 -180 52t-114.5 -56.5t-35.5 -142.5q0 -75 39.5 -123t114.5 -48z" />
    <glyph glyph-name="Delta" unicode="&#x2206;" 
d="M30 0l251 700h89l250 -700h-590zM145 77h360l-180 522z" />
    <glyph glyph-name="product" unicode="&#x220f;" 
d="M185 -141v716h-125v75h529v-75h-122v-716h-78v716h-126v-716h-78z" />
    <glyph glyph-name="summation" unicode="&#x2211;" 
d="M83 -100v94l240 316l-230 295v95h474v-78h-383l240 -311l-255 -334h398v-77h-484z" />
    <glyph glyph-name="minus" unicode="&#x2212;" 
d="M66 344v70h517v-70h-517z" />
    <glyph glyph-name="radical" unicode="&#x221a;" 
d="M268 0l-119 345h-96v72h155l103 -306l202 589h84l-243 -700h-86z" />
    <glyph glyph-name="infinity" unicode="&#x221e;" 
d="M445 112q-38 0 -70.5 23.5t-49.5 59.5q-18 -36 -52 -59.5t-73 -23.5q-63 0 -104.5 54.5t-41.5 136.5q0 83 41 138t104 55q40 0 74.5 -26t51.5 -65q16 39 49.5 65t71.5 26q63 0 104 -55t41 -138q0 -82 -41.5 -136.5t-104.5 -54.5zM300 303q-39 118 -99 118q-29 0 -47 -22
t-23 -46t-5 -50t5 -49.5t23.5 -45t48.5 -21.5q60 0 97 116zM350 303q36 -116 92 -116q30 0 48.5 21.5t23.5 45t5 49.5q0 18 -3 36t-10.5 38t-23 32t-38.5 12q-57 0 -94 -118z" />
    <glyph glyph-name="integral" unicode="&#x222b;" 
d="M154 -240v75q76 0 103 26.5t27 97.5v574q0 117 47.5 164.5t163.5 47.5v-75q-80 0 -105.5 -29t-25.5 -109v-561q0 -117 -47.5 -164t-162.5 -47z" />
    <glyph glyph-name="approxequal" unicode="&#x2248;" 
d="M133 408l-52 28q13 53 49.5 92.5t91.5 39.5q42 0 81 -22t72 -43.5t60 -21.5q19 0 33 7t24.5 25t13.5 25.5t11 31.5l52 -27q-14 -56 -46.5 -94.5t-87.5 -38.5q-42 0 -81.5 22t-72 43.5t-59.5 21.5q-61 0 -89 -89zM133 190l-52 27q13 53 49.5 93t91.5 40q42 0 81 -22
t72 -43.5t60 -21.5q19 0 33 7t24.5 25t13.5 25.5t11 31.5l52 -28q-14 -55 -47 -93.5t-87 -38.5q-42 0 -81.5 22t-72 43.5t-59.5 21.5q-61 0 -89 -89z" />
    <glyph glyph-name="notequal" unicode="&#x2260;" 
d="M93 417v70h266l68 121l49 -28l-52 -93h132v-70h-172l-55 -98h227v-70h-266l-69 -123l-48 28l53 95h-133v70h172l55 98h-227z" />
    <glyph glyph-name="lessequal" unicode="&#x2264;" 
d="M108 0v70h433v-70h-433zM108 379l1 70l390 233l39 -62l-344 -206l343 -207l-39 -63z" />
    <glyph glyph-name="greaterequal" unicode="&#x2265;" 
d="M491 70v-70h-433v70h433zM490 449l1 -70l-390 -235l-39 63l343 207l-344 206l39 62z" />
    <glyph glyph-name="lozenge" unicode="&#x25ca;" 
d="M267 0l-203 356l205 344h111l205 -344l-204 -356h-114zM324 48l178 308l-178 294l-177 -294z" />
    <glyph glyph-name="commaaccent" unicode="&#xf6c3;" 
d="M275 -229v35q28 4 38.5 16t10.5 35h-50v89h102v-75q0 -48 -23.5 -72.5t-77.5 -27.5z" />
    <glyph glyph-name="apple" unicode="&#xf8ff;" 
d="M32 0v423q0 117 86 204.5t206 87.5q121 0 207.5 -87.5t86.5 -204.5v-423h-28l-65 65l-68 -65l-63 65l-71 -65l-69 65l-63 -65l-67 65l-66 -65h-26zM382 377q0 -29 20.5 -49.5t49.5 -20.5t50.5 21t21.5 49q0 30 -21.5 51t-50.5 21t-49.5 -21t-20.5 -51zM127 377
q0 -29 21 -49.5t50 -20.5q30 0 50.5 20.5t20.5 49.5q0 30 -20.5 51t-50.5 21q-29 0 -50 -21t-21 -51z" />
    <glyph glyph-name="dieresis.cap" 
d="M183 765v91h91v-91h-91zM375 765v91h91v-91h-91z" />
    <glyph glyph-name="tilde.cap" 
d="M227 765h-44q17 93 89 93q27 0 62 -18.5t52 -18.5q28 0 36 32h44q-17 -93 -88 -93q-28 0 -63.5 18.5t-51.5 18.5q-28 0 -36 -32z" />
    <glyph glyph-name="macron.cap" 
d="M181 765v61h288v-61h-288z" />
    <glyph glyph-name="acute.cap" 
d="M235 765l79 121h100l-108 -121h-71z" />
    <glyph glyph-name="circumflex.cap" 
d="M204 785l66 85h109l66 -85l-48 -38l-73 92l-73 -92z" />
    <glyph glyph-name="caron.cap" 
d="M270 765l-66 85l47 38l74 -92l73 92l47 -38l-66 -85h-109z" />
    <glyph glyph-name="ring.cap" 
d="M325 684q-43 0 -70.5 29.5t-27.5 72.5q0 42 28 72t70 30q43 0 70.5 -29.5t27.5 -72.5q0 -44 -27.5 -73t-70.5 -29zM325 729q20 0 34 15t14 43t-14 42.5t-34 14.5t-33.5 -14.5t-13.5 -42.5t14 -43t33 -15z" />
    <glyph glyph-name="breve.cap" 
d="M200 874h44q11 -58 80 -58q36 0 56 16t23 42h46q0 -56 -35 -87.5t-90 -31.5q-56 0 -90 31.5t-34 87.5z" />
    <glyph glyph-name="hungarumlaut.cap" 
d="M173 765l75 115h92l-104 -115h-63zM309 765l75 115h92l-104 -115h-63z" />
    <glyph glyph-name="dotaccent.cap" 
d="M276 765v97h97v-97h-97z" />
    <glyph glyph-name="grave.cap" 
d="M343 765l-108 121h101l78 -121h-71z" />
    <glyph glyph-name="a.ss01" 
d="M475 175v165q0 50 -37 90t-99 40q-78 0 -119.5 -53.5t-41.5 -151.5t41 -151.5t120 -53.5q59 0 97.5 34t38.5 81zM478 0v53h-2q-45 -68 -150 -68q-103 0 -166.5 76t-63.5 204q0 126 65 203t165 77q96 0 148 -66h2v51h78v-530h-76z" />
    <glyph glyph-name="agrave.ss01" 
d="M296 595l-108 121h101l78 -121h-71zM475 175v165q0 50 -37 90t-99 40q-78 0 -119.5 -53.5t-41.5 -151.5t41 -151.5t120 -53.5q59 0 97.5 34t38.5 81zM478 0v53h-2q-45 -68 -150 -68q-103 0 -166.5 76t-63.5 204q0 126 65 203t165 77q96 0 148 -66h2v51h78v-530h-76z" />
    <glyph glyph-name="aacute.ss01" 
d="M295 595l78 121h100l-107 -121h-71zM475 175v165q0 50 -37 90t-99 40q-78 0 -119.5 -53.5t-41.5 -151.5t41 -151.5t120 -53.5q59 0 97.5 34t38.5 81zM478 0v53h-2q-45 -68 -150 -68q-103 0 -166.5 76t-63.5 204q0 126 65 203t165 77q96 0 148 -66h2v51h78v-530h-76z" />
    <glyph glyph-name="acircumflex.ss01" 
d="M475 175v165q0 50 -37 90t-99 40q-78 0 -119.5 -53.5t-41.5 -151.5t41 -151.5t120 -53.5q59 0 97.5 34t38.5 81zM478 0v53h-2q-45 -68 -150 -68q-103 0 -166.5 76t-63.5 204q0 126 65 203t165 77q96 0 148 -66h2v51h78v-530h-76zM225 620l66 85h109l66 -85l-48 -38
l-73 92l-73 -92z" />
    <glyph glyph-name="atilde.ss01" 
d="M246 602h-44q18 94 89 94q27 0 62 -19t52 -19q28 0 36 33h44q-18 -94 -88 -94q-28 0 -63.5 19t-51.5 19q-28 0 -36 -33zM475 175v165q0 50 -37 90t-99 40q-78 0 -119.5 -53.5t-41.5 -151.5t41 -151.5t120 -53.5q59 0 97.5 34t38.5 81zM478 0v53h-2q-45 -68 -150 -68
q-103 0 -166.5 76t-63.5 204q0 126 65 203t165 77q96 0 148 -66h2v51h78v-530h-76z" />
    <glyph glyph-name="adieresis.ss01" 
d="M475 175v165q0 50 -37 90t-99 40q-78 0 -119.5 -53.5t-41.5 -151.5t41 -151.5t120 -53.5q59 0 97.5 34t38.5 81zM478 0v53h-2q-45 -68 -150 -68q-103 0 -166.5 76t-63.5 204q0 126 65 203t165 77q96 0 148 -66h2v51h78v-530h-76zM202 611v91h91v-91h-91zM394 611v91h91
v-91h-91z" />
    <glyph glyph-name="amacron.ss01" 
d="M475 175v165q0 50 -37 90t-99 40q-78 0 -119.5 -53.5t-41.5 -151.5t41 -151.5t120 -53.5q59 0 97.5 34t38.5 81zM478 0v53h-2q-45 -68 -150 -68q-103 0 -166.5 76t-63.5 204q0 126 65 203t165 77q96 0 148 -66h2v51h78v-530h-76zM199 620v61h288v-61h-288z" />
    <glyph glyph-name="abreve.ss01" 
d="M219 704h44q11 -58 80 -58q36 0 56 16t23 42h46q0 -56 -35 -87.5t-90 -31.5q-56 0 -90 31.5t-34 87.5zM475 175v165q0 50 -37 90t-99 40q-78 0 -119.5 -53.5t-41.5 -151.5t41 -151.5t120 -53.5q59 0 97.5 34t38.5 81zM478 0v53h-2q-45 -68 -150 -68q-103 0 -166.5 76
t-63.5 204q0 126 65 203t165 77q96 0 148 -66h2v51h78v-530h-76z" />
    <glyph glyph-name="aring.ss01" 
d="M478 0v53h-2q-45 -68 -150 -68q-103 0 -166.5 76t-63.5 204q0 110 50.5 183.5t132.5 91.5q-41 28 -41 85q0 42 28 72t70 30q43 0 70.5 -29.5t27.5 -72.5q0 -61 -46 -89q52 -15 86 -57h2v51h78v-530h-76zM475 175v165q0 50 -37 90t-99 40q-78 0 -119.5 -53.5t-41.5 -151.5
t41 -151.5t120 -53.5q59 0 97.5 34t38.5 81zM336 567q20 0 34 15.5t14 43.5q0 27 -14 41.5t-34 14.5t-33.5 -14t-13.5 -42t14 -43.5t33 -15.5z" />
    <glyph glyph-name="aringacute.ss01" 
d="M478 0v53h-2q-45 -68 -150 -68q-103 0 -166.5 76t-63.5 204q0 110 51 184t133 91q-41 28 -41 85q0 39 24.5 68t62.5 33l58 90h100l-93 -105q44 -29 44 -86q0 -61 -47 -89q52 -15 86 -57h2v51h78v-530h-76zM475 175v165q0 50 -37 90t-99 40q-78 0 -119.5 -53.5
t-41.5 -151.5t41 -151.5t120 -53.5q59 0 97.5 34t38.5 81zM337 567q20 0 34 15.5t14 43.5q0 27 -14 41.5t-34 14.5t-33.5 -14t-13.5 -42t14 -43.5t33 -15.5z" />
    <glyph glyph-name="aogonek.ss01" 
d="M478 0v53h-2q-45 -68 -150 -68q-103 0 -166.5 76t-63.5 204q0 126 65 203t165 77q96 0 148 -66h2v51h78v-530h1q-80 -72 -80 -117q0 -39 46 -39q34 0 66 37l32 -28q-51 -64 -123 -64q-40 0 -68 17t-28 57q0 75 99 137h-21zM475 175v165q0 50 -37 90t-99 40
q-78 0 -119.5 -53.5t-41.5 -151.5t41 -151.5t120 -53.5q59 0 97.5 34t38.5 81z" />
    <glyph glyph-name="caron.alt" 
d="M271 579l29 151h79l-52 -151h-56z" />
    <glyph glyph-name="parenleft.cap" 
d="M446 -110l-45 -37q-17 16 -44 53.5t-65 102.5t-64 156t-26 183q0 81 18.5 159t42.5 129.5t56.5 99.5t49.5 66.5l32 33.5l47 -38q-82 -90 -128 -193t-46 -256q0 -133 49 -250.5t123 -208.5z" />
    <glyph glyph-name="parenright.cap" 
d="M249 -147l-45 37q74 91 123 208.5t49 250.5q0 153 -46 256t-128 193l47 38l32 -33.5t49.5 -66.5t56.5 -99.5t42.5 -129.5t18.5 -159q0 -92 -26 -183t-64 -156t-65 -102.5t-44 -53.5z" />
    <glyph glyph-name="bracketleft.cap" 
d="M204 -122v952h242v-59h-178v-834h178v-59h-242z" />
    <glyph glyph-name="bracketright.cap" 
d="M446 830v-952h-242v59h178v834h-178v59h242z" />
    <glyph glyph-name="braceleft.cap" 
d="M272 1v264q0 32 -12 45t-41 13h-28v89h28q29 0 41 14.5t12 46.5v217q0 80 33.5 110t98.5 30h54v-60h-53q-37 0 -53 -19.5t-16 -67.5v-213q0 -29 -9.5 -50.5t-23 -31.5t-23 -14.5t-14.5 -5.5q70 -28 70 -100v-260q0 -49 16 -68t54 -19h52v-60h-54q-65 0 -98.5 29.5
t-33.5 110.5z" />
    <glyph glyph-name="braceright.cap" 
d="M377 265v-264q0 -81 -33.5 -110.5t-98.5 -29.5h-54v60h52q38 0 54 19t16 68v260q0 72 70 100q-5 1 -14.5 5.5t-23 14.5t-23 31.5t-9.5 50.5v213q0 48 -16 67.5t-53 19.5h-53v60h54q65 0 98.5 -30t33.5 -110v-217q0 -32 12 -46.5t41 -14.5h28v-89h-28q-29 0 -41 -13
t-12 -45z" />
    <glyph glyph-name="published" 
d="M288 364h46q82 0 82 63q0 65 -82 65h-46v-128zM329 46q-108 0 -182.5 89t-74.5 219t74.5 218.5t182.5 88.5q104 0 176 -89t72 -218q0 -130 -72 -219t-176 -89zM329 94q84 0 141.5 74.5t57.5 185.5q0 110 -57.5 184t-141.5 74q-88 0 -148 -74t-60 -184q0 -111 60 -185.5
t148 -74.5zM288 317v-150h-49v370h95q132 0 132 -110q0 -55 -36 -82.5t-96 -27.5h-46z" />
    <glyph glyph-name="zero.numr" 
d="M325 268q-73 0 -116 56t-43 168q0 104 43.5 158.5t115.5 54.5t115.5 -54.5t43.5 -158.5q0 -112 -43 -168t-116 -56zM325 330q90 0 90 163q0 6 -0.5 16t-0.5 15l-169 -123q19 -71 80 -71zM235 493q0 -24 1 -35l167 122q-21 63 -78 63q-90 0 -90 -150z" />
    <glyph glyph-name="one.numr" 
d="M181 273v62h116v288l-92 -57v73l98 61h59v-365h107v-62h-288z" />
    <glyph glyph-name="two.numr" 
d="M183 273v52q0 53 26 90q19 25 94 64l17.5 10t17 9t14.5 8t13.5 9t11.5 8.5t10.5 9.5t7 9.5t6 11t3 12.5t1.5 14q0 26 -19.5 46t-55.5 20q-79 0 -87 -92l-64 8q4 68 44 105.5t107 37.5q62 0 100 -35.5t38 -93.5q0 -50 -30 -79.5t-84 -56.5q-77 -41 -88 -58
q-10 -13 -10 -43h215v-66h-288z" />
    <glyph glyph-name="three.numr" 
d="M172 414l65 14q6 -51 28.5 -75.5t64.5 -24.5q41 0 62.5 19.5t21.5 51.5q0 35 -23 54t-65 19h-26v53h20q29 0 52.5 13.5t23.5 43.5q0 29 -18 46t-51 17q-62 0 -72 -71l-62 12q5 55 42 87t94 32q56 0 93 -31t37 -83q0 -35 -18.5 -56.5t-39.5 -28.5v-2q29 -9 52.5 -36
t23.5 -73q0 -55 -39.5 -91t-107.5 -36q-65 0 -107 36.5t-51 109.5z" />
    <glyph glyph-name="four.numr" 
d="M170 372v61l162 267h95v-267h52v-61h-52v-99h-65v99h-192zM231 433h131v211h-2z" />
    <glyph glyph-name="five.numr" 
d="M170 382l61 27q22 -80 96 -80q40 0 64.5 23.5t24.5 66.5t-24.5 66t-62.5 23q-57 0 -91 -48l-54 25l38 215h215v-61h-165l-21 -116h2q30 37 92 37q56 0 95.5 -40t39.5 -102q0 -69 -43.5 -109.5t-109.5 -40.5q-61 0 -100.5 31t-56.5 83z" />
    <glyph glyph-name="six.numr" 
d="M338 330q40 0 61.5 23.5t21.5 62.5t-22.5 62.5t-63.5 23.5q-39 0 -63 -24.5t-24 -57.5q0 -41 25 -65.5t65 -24.5zM233 497h2q9 20 38.5 39t76.5 19q53 0 93.5 -38t40.5 -103q0 -68 -42 -107t-104 -39q-75 0 -123.5 53.5t-48.5 159.5q0 96 46.5 160t122.5 64
q57 0 90.5 -30.5t42.5 -76.5l-60 -17q-18 65 -76 65q-43 0 -71 -40.5t-28 -108.5z" />
    <glyph glyph-name="seven.numr" 
d="M203 273l200 365v2h-220v60h282v-73l-188 -354h-74z" />
    <glyph glyph-name="eight.numr" 
d="M258 588q0 -25 16.5 -42t49.5 -17t49.5 17t16.5 42t-17 43t-49 18t-49 -18t-17 -43zM251 503v2q-56 24 -56 89q0 46 36 78.5t93 32.5t94 -32.5t37 -78.5q0 -63 -56 -89v-2q32 -11 53 -40t21 -67q0 -60 -41 -94t-108 -34t-107.5 34t-40.5 94q0 38 20.5 67t54.5 40z
M240 402q0 -32 21 -52t63 -20t63 20t21 52q0 34 -22 55t-62 21t-62 -21t-22 -55z" />
    <glyph glyph-name="nine.numr" 
d="M186 372l60 21q16 -65 83 -65q89 0 88 146h-2q-4 -18 -31.5 -37t-73.5 -19q-56 0 -97.5 39t-41.5 103q0 66 42 105.5t103 39.5q71 0 117 -55t46 -166q0 -110 -41 -163t-112 -53q-112 0 -140 104zM319 475q38 0 61 21.5t23 59.5t-24 63.5t-63 25.5q-36 0 -59 -23t-23 -62
t23 -62t62 -23z" />
    <glyph glyph-name="zero.dnom" 
d="M325 -5q-73 0 -116 56t-43 168q0 104 43.5 158.5t115.5 54.5t115.5 -54.5t43.5 -158.5q0 -112 -43 -168t-116 -56zM325 57q90 0 90 163q0 6 -0.5 16t-0.5 15l-169 -123q19 -71 80 -71zM235 220q0 -24 1 -35l167 122q-21 63 -78 63q-90 0 -90 -150z" />
    <glyph glyph-name="one.dnom" 
d="M181 0v62h116v288l-92 -57v73l98 61h59v-365h107v-62h-288z" />
    <glyph glyph-name="two.dnom" 
d="M183 0v52q0 53 26 90q19 25 94 64l17.5 10t17 9t14.5 8t13.5 9t11.5 8.5t10.5 9.5t7 9.5t6 11t3 12.5t1.5 14q0 26 -19.5 46t-55.5 20q-79 0 -87 -92l-64 8q4 68 44 105.5t107 37.5q62 0 100 -35.5t38 -93.5q0 -50 -30 -79.5t-84 -56.5q-77 -41 -88 -58q-10 -13 -10 -43
h215v-66h-288z" />
    <glyph glyph-name="three.dnom" 
d="M172 141l65 14q6 -51 28.5 -75.5t64.5 -24.5q41 0 62.5 19.5t21.5 51.5q0 35 -23 54t-65 19h-26v53h20q29 0 52.5 13.5t23.5 43.5q0 29 -18 46t-51 17q-62 0 -72 -71l-62 12q5 55 42 87t94 32q56 0 93 -31t37 -83q0 -35 -18.5 -56.5t-39.5 -28.5v-2q29 -9 52.5 -36
t23.5 -73q0 -55 -39.5 -91t-107.5 -36q-65 0 -107 36.5t-51 109.5z" />
    <glyph glyph-name="four.dnom" 
d="M170 99v61l162 267h95v-267h52v-61h-52v-99h-65v99h-192zM231 160h131v211h-2z" />
    <glyph glyph-name="five.dnom" 
d="M170 109l61 27q22 -80 96 -80q40 0 64.5 23.5t24.5 66.5t-24.5 66t-62.5 23q-57 0 -91 -48l-54 25l38 215h215v-61h-165l-21 -116h2q30 37 92 37q56 0 95.5 -40t39.5 -102q0 -69 -43.5 -109.5t-109.5 -40.5q-61 0 -100.5 31t-56.5 83z" />
    <glyph glyph-name="six.dnom" 
d="M338 57q40 0 61.5 23.5t21.5 62.5t-22.5 62.5t-63.5 23.5q-39 0 -63 -24.5t-24 -57.5q0 -41 25 -65.5t65 -24.5zM233 224h2q9 20 38.5 39t76.5 19q53 0 93.5 -38t40.5 -103q0 -68 -42 -107t-104 -39q-75 0 -123.5 53.5t-48.5 159.5q0 96 46.5 160t122.5 64
q57 0 90.5 -30.5t42.5 -76.5l-60 -17q-18 65 -76 65q-43 0 -71 -40.5t-28 -108.5z" />
    <glyph glyph-name="seven.dnom" 
d="M203 0l200 365v2h-220v60h282v-73l-188 -354h-74z" />
    <glyph glyph-name="eight.dnom" 
d="M258 315q0 -25 16.5 -42t49.5 -17t49.5 17t16.5 42t-17 43t-49 18t-49 -18t-17 -43zM251 230v2q-56 24 -56 89q0 46 36 78.5t93 32.5t94 -32.5t37 -78.5q0 -63 -56 -89v-2q32 -11 53 -40t21 -67q0 -60 -41 -94t-108 -34t-107.5 34t-40.5 94q0 38 20.5 67t54.5 40z
M240 129q0 -32 21 -52t63 -20t63 20t21 52q0 34 -22 55t-62 21t-62 -21t-22 -55z" />
    <glyph glyph-name="nine.dnom" 
d="M186 99l60 21q16 -65 83 -65q89 0 88 146h-2q-4 -17 -31.5 -36.5t-73.5 -19.5q-56 0 -97.5 39t-41.5 103q0 66 42 105.5t103 39.5q71 0 117 -55t46 -166q0 -110 -41 -163t-112 -53q-112 0 -140 104zM319 202q38 0 61 21.5t23 59.5t-24 63.5t-63 25.5q-36 0 -59 -23
t-23 -62t23 -62t62 -23z" />
    <glyph glyph-name="plusinferior" 
d="M293 -157v155h-136v59h136v138h63v-138h137v-59h-137v-155h-63z" />
    <glyph glyph-name="minusinferior" 
d="M172 -2v59h306v-59h-306z" />
  </font>
</defs>
</svg>
